<svg id="Layer_1" data-name="Layer 1" xmlns="http://www.w3.org/2000/svg" viewBox="0 0 1440 37.5"><defs><style>.cls-1{fill:#fff;}.cls-2{fill:none;stroke:#000;stroke-miterlimit:10;stroke-width:7px;}</style></defs><title>footer</title><rect class="cls-1" y="-122.5" width="1440" height="160"/><circle cx="11.25" cy="10" r="3.5"/><circle cx="11.25" cy="27.5" r="3.5"/><circle cx="28.75" cy="10" r="3.5"/><circle cx="28.75" cy="27.5" r="3.5"/><circle cx="46.25" cy="10" r="3.5"/><circle cx="46.25" cy="27.5" r="3.5"/><circle cx="63.75" cy="10" r="3.5"/><circle cx="63.75" cy="27.5" r="3.5"/><circle cx="81.25" cy="10" r="3.5"/><circle cx="81.25" cy="27.5" r="3.5"/><circle cx="98.75" cy="10" r="3.5"/><circle cx="98.75" cy="27.5" r="3.5"/><circle cx="116.25" cy="10" r="3.5"/><circle cx="116.25" cy="27.5" r="3.5"/><circle cx="133.75" cy="10" r="3.5"/><circle cx="133.75" cy="27.5" r="3.5"/><circle cx="151.25" cy="10" r="3.5"/><circle cx="151.25" cy="27.5" r="3.5"/><circle cx="168.75" cy="10" r="3.5"/><circle cx="168.75" cy="27.5" r="3.5"/><circle cx="186.25" cy="10" r="3.5"/><circle cx="186.25" cy="27.5" r="3.5"/><circle cx="203.75" cy="10" r="3.5"/><circle cx="203.75" cy="27.5" r="3.5"/><circle cx="221.25" cy="10" r="3.5"/><circle cx="221.25" cy="27.5" r="3.5"/><circle cx="238.75" cy="10" r="3.5"/><circle cx="238.75" cy="27.5" r="3.5"/><circle cx="256.25" cy="10" r="3.5"/><circle cx="256.25" cy="27.5" r="3.5"/><circle cx="273.75" cy="10" r="3.5"/><circle cx="273.75" cy="27.5" r="3.5"/><circle cx="291.25" cy="10" r="3.5"/><circle cx="291.25" cy="27.5" r="3.5"/><circle cx="308.75" cy="10" r="3.5"/><circle cx="308.75" cy="27.5" r="3.5"/><circle cx="326.25" cy="10" r="3.5"/><circle cx="326.25" cy="27.5" r="3.5"/><circle cx="343.75" cy="10" r="3.5"/><circle cx="343.75" cy="27.5" r="3.5"/><circle cx="361.25" cy="10" r="3.5"/><circle cx="361.25" cy="27.5" r="3.5"/><circle cx="378.75" cy="10" r="3.5"/><circle cx="378.75" cy="27.5" r="3.5"/><circle cx="396.25" cy="10" r="3.5"/><circle cx="396.25" cy="27.5" r="3.5"/><circle cx="413.75" cy="10" r="3.5"/><circle cx="413.75" cy="27.5" r="3.5"/><circle cx="431.25" cy="10" r="3.5"/><circle cx="431.25" cy="27.5" r="3.5"/><circle cx="448.75" cy="10" r="3.5"/><circle cx="448.75" cy="27.5" r="3.5"/><circle cx="466.25" cy="10" r="3.5"/><circle cx="466.25" cy="27.5" r="3.5"/><circle cx="483.75" cy="10" r="3.5"/><circle cx="483.75" cy="27.5" r="3.5"/><circle cx="501.25" cy="10" r="3.5"/><circle cx="501.25" cy="27.5" r="3.5"/><circle cx="518.75" cy="10" r="3.5"/><circle cx="518.75" cy="27.5" r="3.5"/><circle cx="536.25" cy="10" r="3.5"/><circle cx="536.25" cy="27.5" r="3.5"/><circle cx="553.75" cy="10" r="3.5"/><circle cx="553.75" cy="27.5" r="3.5"/><circle cx="571.25" cy="10" r="3.5"/><circle cx="571.25" cy="27.5" r="3.5"/><circle cx="588.75" cy="10" r="3.5"/><circle cx="588.75" cy="27.5" r="3.5"/><circle cx="606.25" cy="10" r="3.5"/><circle cx="606.25" cy="27.5" r="3.5"/><circle cx="623.75" cy="10" r="3.5"/><circle cx="623.75" cy="27.5" r="3.5"/><circle cx="641.25" cy="10" r="3.5"/><circle cx="641.25" cy="27.5" r="3.5"/><circle cx="658.75" cy="10" r="3.5"/><circle cx="658.75" cy="27.5" r="3.5"/><circle cx="676.25" cy="10" r="3.5"/><circle cx="676.25" cy="27.5" r="3.5"/><circle cx="693.75" cy="10" r="3.5"/><circle cx="693.75" cy="27.5" r="3.5"/><circle cx="711.25" cy="10" r="3.5"/><circle cx="711.25" cy="27.5" r="3.5"/><circle cx="728.75" cy="10" r="3.5"/><circle cx="728.75" cy="27.5" r="3.5"/><circle cx="746.25" cy="10" r="3.5"/><circle cx="746.25" cy="27.5" r="3.5"/><circle cx="763.75" cy="10" r="3.5"/><circle cx="763.75" cy="27.5" r="3.5"/><circle cx="781.25" cy="10" r="3.5"/><circle cx="781.25" cy="27.5" r="3.5"/><circle cx="798.75" cy="10" r="3.5"/><circle cx="798.75" cy="27.5" r="3.5"/><circle cx="816.25" cy="10" r="3.5"/><circle cx="816.25" cy="27.5" r="3.5"/><circle cx="833.75" cy="10" r="3.5"/><circle cx="833.75" cy="27.5" r="3.5"/><circle cx="851.25" cy="10" r="3.5"/><circle cx="851.25" cy="27.5" r="3.5"/><circle cx="868.75" cy="10" r="3.5"/><circle cx="868.75" cy="27.5" r="3.5"/><circle cx="886.25" cy="10" r="3.5"/><circle cx="886.25" cy="27.5" r="3.5"/><circle cx="903.75" cy="10" r="3.5"/><circle cx="903.75" cy="27.5" r="3.5"/><circle cx="921.25" cy="10" r="3.5"/><circle cx="921.25" cy="27.5" r="3.5"/><circle cx="938.75" cy="10" r="3.5"/><circle cx="938.75" cy="27.5" r="3.5"/><circle cx="956.25" cy="10" r="3.5"/><circle cx="956.25" cy="27.5" r="3.5"/><circle cx="973.75" cy="10" r="3.5"/><circle cx="973.75" cy="27.5" r="3.5"/><circle cx="991.25" cy="10" r="3.5"/><circle cx="991.25" cy="27.5" r="3.5"/><circle cx="1008.75" cy="10" r="3.5"/><circle cx="1008.75" cy="27.5" r="3.5"/><circle cx="1026.25" cy="10" r="3.5"/><circle cx="1026.25" cy="27.5" r="3.5"/><circle cx="1043.75" cy="10" r="3.5"/><circle cx="1043.75" cy="27.5" r="3.5"/><circle cx="1061.25" cy="10" r="3.5"/><circle cx="1061.25" cy="27.5" r="3.5"/><circle cx="1078.75" cy="10" r="3.5"/><circle cx="1078.75" cy="27.5" r="3.5"/><circle cx="1096.25" cy="10" r="3.5"/><circle cx="1096.25" cy="27.5" r="3.5"/><circle cx="1113.75" cy="10" r="3.5"/><circle cx="1113.75" cy="27.5" r="3.5"/><circle cx="1131.25" cy="10" r="3.5"/><circle cx="1131.25" cy="27.5" r="3.5"/><circle cx="1148.75" cy="10" r="3.5"/><circle cx="1148.75" cy="27.5" r="3.5"/><circle cx="1166.25" cy="10" r="3.5"/><circle cx="1166.25" cy="27.5" r="3.5"/><circle cx="1183.75" cy="10" r="3.5"/><circle cx="1183.75" cy="27.5" r="3.5"/><circle cx="1201.25" cy="10" r="3.5"/><circle cx="1201.25" cy="27.5" r="3.5"/><circle cx="1218.75" cy="10" r="3.5"/><circle cx="1218.75" cy="27.5" r="3.5"/><circle cx="1236.25" cy="10" r="3.5"/><circle cx="1236.25" cy="27.5" r="3.5"/><circle cx="1253.75" cy="10" r="3.5"/><circle cx="1253.75" cy="27.5" r="3.5"/><circle cx="1271.25" cy="10" r="3.5"/><circle cx="1271.25" cy="27.5" r="3.5"/><circle cx="1288.75" cy="10" r="3.5"/><circle cx="1288.75" cy="27.5" r="3.5"/><circle cx="1306.25" cy="10" r="3.5"/><circle cx="1306.25" cy="27.5" r="3.5"/><circle cx="1323.75" cy="10" r="3.5"/><circle cx="1323.75" cy="27.5" r="3.5"/><circle cx="1341.25" cy="10" r="3.5"/><circle cx="1341.25" cy="27.5" r="3.5"/><circle cx="1358.75" cy="10" r="3.5"/><circle cx="1358.75" cy="27.5" r="3.5"/><circle cx="1376.25" cy="10" r="3.5"/><circle cx="1376.25" cy="27.5" r="3.5"/><circle cx="1393.75" cy="10" r="3.5"/><circle cx="1393.75" cy="27.5" r="3.5"/><circle cx="1411.25" cy="10" r="3.5"/><circle cx="1411.25" cy="27.5" r="3.5"/><circle cx="1428.75" cy="10" r="3.5"/><circle cx="1428.75" cy="27.5" r="3.5"/><line class="cls-2" x1="11.25" y1="27.5" x2="1428.75" y2="27.5"/></svg>