<svg id="Layer_1" data-name="Layer 1" xmlns="http://www.w3.org/2000/svg" viewBox="0 0 1440 160"><defs><style>.cls-1{fill:#fff}.cls-2{fill:none;stroke:#000;stroke-miterlimit:10;stroke-width:7px}.cls-3{font-size:22px;font-family:Ubuntu}.cls-4{letter-spacing:-.01em}.cls-5{letter-spacing:0}.cls-7{letter-spacing:-.01em}.cls-12{font-size:17.82px;font-family:Ubuntu-Medium,Ubuntu;font-weight:500}.cls-13{letter-spacing:-.02em}</style></defs><path class="cls-1" d="M0 0h1440v160H0z"/><circle cx="11.3" cy="10" r="3.5"/><circle cx="11.3" cy="27.5" r="3.5"/><circle cx="11.3" cy="45" r="3.5"/><circle cx="11.3" cy="62.5" r="3.5"/><circle cx="11.3" cy="80" r="3.5"/><circle cx="11.3" cy="97.5" r="3.5"/><circle cx="11.3" cy="115" r="3.5"/><circle cx="11.3" cy="132.5" r="3.5"/><circle cx="11.3" cy="150" r="3.5"/><circle cx="28.8" cy="10" r="3.5"/><circle cx="28.8" cy="27.5" r="3.5"/><circle cx="28.8" cy="45" r="3.5"/><circle cx="28.8" cy="62.5" r="3.5"/><circle cx="28.8" cy="80" r="3.5"/><circle cx="28.8" cy="97.5" r="3.5"/><circle cx="28.8" cy="115" r="3.5"/><circle cx="28.8" cy="132.5" r="3.5"/><circle cx="28.8" cy="150" r="3.5"/><circle cx="46.3" cy="10" r="3.5"/><circle cx="46.3" cy="27.5" r="3.5"/><circle cx="46.3" cy="45" r="3.5"/><circle cx="46.3" cy="62.5" r="3.5"/><circle cx="46.3" cy="80" r="3.5"/><circle cx="46.3" cy="97.5" r="3.5"/><circle cx="46.3" cy="115" r="3.5"/><circle cx="46.3" cy="132.5" r="3.5"/><circle cx="46.3" cy="150" r="3.5"/><circle cx="63.8" cy="10" r="3.5"/><circle cx="63.8" cy="132.5" r="3.5"/><circle cx="63.8" cy="150" r="3.5"/><circle cx="81.3" cy="10" r="3.5"/><circle cx="81.3" cy="132.5" r="3.5"/><circle cx="81.3" cy="150" r="3.5"/><circle cx="98.8" cy="10" r="3.5"/><circle cx="98.8" cy="132.5" r="3.5"/><circle cx="98.8" cy="150" r="3.5"/><circle cx="116.3" cy="10" r="3.5"/><circle cx="116.3" cy="132.5" r="3.5"/><circle cx="116.3" cy="150" r="3.5"/><circle cx="133.8" cy="10" r="3.5"/><circle cx="133.8" cy="132.5" r="3.5"/><circle cx="133.8" cy="150" r="3.5"/><circle cx="151.3" cy="10" r="3.5"/><circle cx="151.3" cy="132.5" r="3.5"/><circle cx="151.3" cy="150" r="3.5"/><circle cx="168.8" cy="10" r="3.5"/><circle cx="168.8" cy="132.5" r="3.5"/><circle cx="168.8" cy="150" r="3.5"/><circle cx="186.3" cy="10" r="3.5"/><circle cx="186.3" cy="132.5" r="3.5"/><circle cx="186.3" cy="150" r="3.5"/><circle cx="203.8" cy="10" r="3.5"/><circle cx="203.8" cy="132.5" r="3.5"/><circle cx="203.8" cy="150" r="3.5"/><circle cx="221.3" cy="10" r="3.5"/><circle cx="221.3" cy="132.5" r="3.5"/><circle cx="221.3" cy="150" r="3.5"/><circle cx="238.8" cy="10" r="3.5"/><circle cx="238.8" cy="132.5" r="3.5"/><circle cx="238.8" cy="150" r="3.5"/><circle cx="256.3" cy="10" r="3.5"/><circle cx="256.3" cy="132.5" r="3.5"/><circle cx="256.3" cy="150" r="3.5"/><circle cx="273.8" cy="10" r="3.5"/><circle cx="273.8" cy="132.5" r="3.5"/><circle cx="273.8" cy="150" r="3.5"/><circle cx="291.3" cy="10" r="3.5"/><circle cx="291.3" cy="132.5" r="3.5"/><circle cx="291.3" cy="150" r="3.5"/><circle cx="308.8" cy="10" r="3.5"/><circle cx="308.8" cy="27.5" r="3.5"/><circle cx="308.8" cy="45" r="3.5"/><circle cx="308.8" cy="62.5" r="3.5"/><circle cx="308.8" cy="80" r="3.5"/><circle cx="308.8" cy="97.5" r="3.5"/><circle cx="308.8" cy="115" r="3.5"/><circle cx="308.8" cy="132.5" r="3.5"/><circle cx="308.8" cy="150" r="3.5"/><circle cx="326.3" cy="10" r="3.5"/><circle cx="326.3" cy="27.5" r="3.5"/><circle cx="326.3" cy="45" r="3.5"/><circle cx="326.3" cy="62.5" r="3.5"/><circle cx="326.3" cy="80" r="3.5"/><circle cx="326.3" cy="97.5" r="3.5"/><circle cx="326.3" cy="115" r="3.5"/><circle cx="326.3" cy="132.5" r="3.5"/><circle cx="326.3" cy="150" r="3.5"/><circle cx="343.8" cy="10" r="3.5"/><circle cx="343.8" cy="27.5" r="3.5"/><circle cx="343.8" cy="45" r="3.5"/><circle cx="343.8" cy="62.5" r="3.5"/><circle cx="343.8" cy="80" r="3.5"/><circle cx="343.8" cy="97.5" r="3.5"/><circle cx="343.8" cy="115" r="3.5"/><circle cx="343.8" cy="132.5" r="3.5"/><circle cx="343.8" cy="150" r="3.5"/><circle cx="361.3" cy="10" r="3.5"/><circle cx="361.3" cy="27.5" r="3.5"/><circle cx="361.3" cy="45" r="3.5"/><circle cx="361.3" cy="62.5" r="3.5"/><circle cx="361.3" cy="80" r="3.5"/><circle cx="361.3" cy="97.5" r="3.5"/><circle cx="361.3" cy="115" r="3.5"/><circle cx="361.3" cy="132.5" r="3.5"/><circle cx="361.3" cy="150" r="3.5"/><circle cx="378.8" cy="10" r="3.5"/><circle cx="378.8" cy="27.5" r="3.5"/><circle cx="378.8" cy="45" r="3.5"/><circle cx="378.8" cy="62.5" r="3.5"/><circle cx="378.8" cy="80" r="3.5"/><circle cx="378.8" cy="97.5" r="3.5"/><circle cx="378.8" cy="115" r="3.5"/><circle cx="378.8" cy="132.5" r="3.5"/><circle cx="378.8" cy="150" r="3.5"/><circle cx="396.3" cy="10" r="3.5"/><circle cx="396.3" cy="27.5" r="3.5"/><circle cx="396.3" cy="45" r="3.5"/><circle cx="396.3" cy="62.5" r="3.5"/><circle cx="396.3" cy="80" r="3.5"/><circle cx="396.3" cy="97.5" r="3.5"/><circle cx="396.3" cy="115" r="3.5"/><circle cx="396.3" cy="132.5" r="3.5"/><circle cx="396.3" cy="150" r="3.5"/><circle cx="413.8" cy="10" r="3.5"/><circle cx="413.8" cy="27.5" r="3.5"/><circle cx="413.8" cy="45" r="3.5"/><circle cx="413.8" cy="62.5" r="3.5"/><circle cx="413.8" cy="80" r="3.5"/><circle cx="413.8" cy="97.5" r="3.5"/><circle cx="413.8" cy="115" r="3.5"/><circle cx="413.8" cy="132.5" r="3.5"/><circle cx="413.8" cy="150" r="3.5"/><circle cx="431.3" cy="10" r="3.5"/><circle cx="431.3" cy="27.5" r="3.5"/><circle cx="431.3" cy="45" r="3.5"/><circle cx="431.3" cy="62.5" r="3.5"/><circle cx="431.3" cy="80" r="3.5"/><circle cx="431.3" cy="97.5" r="3.5"/><circle cx="431.3" cy="115" r="3.5"/><circle cx="431.3" cy="132.5" r="3.5"/><circle cx="431.3" cy="150" r="3.5"/><circle cx="448.8" cy="10" r="3.5"/><circle cx="448.8" cy="27.5" r="3.5"/><circle cx="448.8" cy="45" r="3.5"/><circle cx="448.8" cy="62.5" r="3.5"/><circle cx="448.8" cy="80" r="3.5"/><circle cx="448.8" cy="97.5" r="3.5"/><circle cx="448.8" cy="115" r="3.5"/><circle cx="448.8" cy="132.5" r="3.5"/><circle cx="448.8" cy="150" r="3.5"/><circle cx="466.3" cy="10" r="3.5"/><circle cx="466.3" cy="27.5" r="3.5"/><circle cx="466.3" cy="45" r="3.5"/><circle cx="466.3" cy="62.5" r="3.5"/><circle cx="466.3" cy="80" r="3.5"/><circle cx="466.3" cy="97.5" r="3.5"/><circle cx="466.3" cy="115" r="3.5"/><circle cx="466.3" cy="132.5" r="3.5"/><circle cx="466.3" cy="150" r="3.5"/><circle cx="483.8" cy="10" r="3.5"/><circle cx="483.8" cy="27.5" r="3.5"/><circle cx="483.8" cy="45" r="3.5"/><circle cx="483.8" cy="62.5" r="3.5"/><circle cx="483.8" cy="80" r="3.5"/><circle cx="483.8" cy="97.5" r="3.5"/><circle cx="483.8" cy="115" r="3.5"/><circle cx="483.8" cy="132.5" r="3.5"/><circle cx="483.8" cy="150" r="3.5"/><circle cx="501.3" cy="10" r="3.5"/><circle cx="501.3" cy="27.5" r="3.5"/><circle cx="501.3" cy="45" r="3.5"/><circle cx="501.3" cy="62.5" r="3.5"/><circle cx="501.3" cy="80" r="3.5"/><circle cx="501.3" cy="97.5" r="3.5"/><circle cx="501.3" cy="115" r="3.5"/><circle cx="501.3" cy="132.5" r="3.5"/><circle cx="501.3" cy="150" r="3.5"/><circle cx="518.8" cy="10" r="3.5"/><circle cx="518.8" cy="27.5" r="3.5"/><circle cx="518.8" cy="45" r="3.5"/><circle cx="518.8" cy="62.5" r="3.5"/><circle cx="518.8" cy="80" r="3.5"/><circle cx="518.8" cy="97.5" r="3.5"/><circle cx="518.8" cy="115" r="3.5"/><circle cx="518.8" cy="132.5" r="3.5"/><circle cx="518.8" cy="150" r="3.5"/><circle cx="536.3" cy="10" r="3.5"/><circle cx="536.3" cy="27.5" r="3.5"/><circle cx="536.3" cy="45" r="3.5"/><circle cx="536.3" cy="62.5" r="3.5"/><circle cx="536.3" cy="80" r="3.5"/><circle cx="536.3" cy="97.5" r="3.5"/><circle cx="536.3" cy="115" r="3.5"/><circle cx="536.3" cy="132.5" r="3.5"/><circle cx="536.3" cy="150" r="3.5"/><circle cx="553.8" cy="10" r="3.5"/><circle cx="553.8" cy="27.5" r="3.5"/><circle cx="553.8" cy="45" r="3.5"/><circle cx="553.8" cy="62.5" r="3.5"/><circle cx="553.8" cy="80" r="3.5"/><circle cx="553.8" cy="97.5" r="3.5"/><circle cx="553.8" cy="115" r="3.5"/><circle cx="553.8" cy="132.5" r="3.5"/><circle cx="553.8" cy="150" r="3.5"/><circle cx="571.3" cy="10" r="3.5"/><circle cx="571.3" cy="27.5" r="3.5"/><circle cx="571.3" cy="45" r="3.5"/><circle cx="571.3" cy="62.5" r="3.5"/><circle cx="571.3" cy="80" r="3.5"/><circle cx="571.3" cy="97.5" r="3.5"/><circle cx="571.3" cy="115" r="3.5"/><circle cx="571.3" cy="132.5" r="3.5"/><circle cx="571.3" cy="150" r="3.5"/><circle cx="588.8" cy="10" r="3.5"/><circle cx="588.8" cy="27.5" r="3.5"/><circle cx="588.8" cy="45" r="3.5"/><circle cx="588.8" cy="62.5" r="3.5"/><circle cx="588.8" cy="80" r="3.5"/><circle cx="588.8" cy="97.5" r="3.5"/><circle cx="588.8" cy="115" r="3.5"/><circle cx="588.8" cy="132.5" r="3.5"/><circle cx="588.8" cy="150" r="3.5"/><circle cx="606.3" cy="10" r="3.5"/><circle cx="606.3" cy="27.5" r="3.5"/><circle cx="606.3" cy="45" r="3.5"/><circle cx="606.3" cy="62.5" r="3.5"/><circle cx="606.3" cy="80" r="3.5"/><circle cx="606.3" cy="97.5" r="3.5"/><circle cx="606.3" cy="115" r="3.5"/><circle cx="606.3" cy="132.5" r="3.5"/><circle cx="606.3" cy="150" r="3.5"/><circle cx="623.8" cy="10" r="3.5"/><circle cx="623.8" cy="27.5" r="3.5"/><circle cx="623.8" cy="45" r="3.5"/><circle cx="623.8" cy="62.5" r="3.5"/><circle cx="623.8" cy="80" r="3.5"/><circle cx="623.8" cy="97.5" r="3.5"/><circle cx="623.8" cy="115" r="3.5"/><circle cx="623.8" cy="132.5" r="3.5"/><circle cx="623.8" cy="150" r="3.5"/><circle cx="641.3" cy="10" r="3.5"/><circle cx="641.3" cy="27.5" r="3.5"/><circle cx="641.3" cy="45" r="3.5"/><circle cx="641.3" cy="62.5" r="3.5"/><circle cx="641.3" cy="80" r="3.5"/><circle cx="641.3" cy="97.5" r="3.5"/><circle cx="641.3" cy="115" r="3.5"/><circle cx="641.3" cy="132.5" r="3.5"/><circle cx="641.3" cy="150" r="3.5"/><circle cx="658.8" cy="10" r="3.5"/><circle cx="658.8" cy="27.5" r="3.5"/><circle cx="658.8" cy="45" r="3.5"/><circle cx="658.8" cy="62.5" r="3.5"/><circle cx="658.8" cy="80" r="3.5"/><circle cx="658.8" cy="97.5" r="3.5"/><circle cx="658.8" cy="115" r="3.5"/><circle cx="658.8" cy="132.5" r="3.5"/><circle cx="658.8" cy="150" r="3.5"/><circle cx="676.3" cy="10" r="3.5"/><circle cx="676.3" cy="27.5" r="3.5"/><circle cx="676.3" cy="45" r="3.5"/><circle cx="676.3" cy="62.5" r="3.5"/><circle cx="676.3" cy="80" r="3.5"/><circle cx="676.3" cy="97.5" r="3.5"/><circle cx="676.3" cy="115" r="3.5"/><circle cx="676.3" cy="132.5" r="3.5"/><circle cx="676.3" cy="150" r="3.5"/><circle cx="693.8" cy="10" r="3.5"/><circle cx="693.8" cy="27.5" r="3.5"/><circle cx="693.8" cy="45" r="3.5"/><circle cx="693.8" cy="62.5" r="3.5"/><circle cx="693.8" cy="80" r="3.5"/><circle cx="693.8" cy="97.5" r="3.5"/><circle cx="693.8" cy="115" r="3.5"/><circle cx="693.8" cy="132.5" r="3.5"/><circle cx="693.8" cy="150" r="3.5"/><circle cx="711.3" cy="10" r="3.5"/><circle cx="711.3" cy="27.5" r="3.5"/><circle cx="711.3" cy="45" r="3.5"/><circle cx="711.3" cy="62.5" r="3.5"/><circle cx="711.3" cy="80" r="3.5"/><circle cx="711.3" cy="97.5" r="3.5"/><circle cx="711.3" cy="115" r="3.5"/><circle cx="711.3" cy="132.5" r="3.5"/><circle cx="711.3" cy="150" r="3.5"/><circle cx="728.8" cy="10" r="3.5"/><circle cx="728.8" cy="27.5" r="3.5"/><circle cx="728.8" cy="45" r="3.5"/><circle cx="728.8" cy="62.5" r="3.5"/><circle cx="728.8" cy="80" r="3.5"/><circle cx="728.8" cy="97.5" r="3.5"/><circle cx="728.8" cy="115" r="3.5"/><circle cx="728.8" cy="132.5" r="3.5"/><circle cx="728.8" cy="150" r="3.5"/><circle cx="746.3" cy="10" r="3.5"/><circle cx="746.3" cy="27.5" r="3.5"/><circle cx="746.3" cy="45" r="3.5"/><circle cx="746.3" cy="62.5" r="3.5"/><circle cx="746.3" cy="80" r="3.5"/><circle cx="746.3" cy="97.5" r="3.5"/><circle cx="746.3" cy="115" r="3.5"/><circle cx="746.3" cy="132.5" r="3.5"/><circle cx="746.3" cy="150" r="3.5"/><circle cx="763.8" cy="10" r="3.5"/><circle cx="763.8" cy="27.5" r="3.5"/><circle cx="763.8" cy="45" r="3.5"/><circle cx="763.8" cy="62.5" r="3.5"/><circle cx="763.8" cy="80" r="3.5"/><circle cx="763.8" cy="97.5" r="3.5"/><circle cx="763.8" cy="115" r="3.5"/><circle cx="763.8" cy="132.5" r="3.5"/><circle cx="763.8" cy="150" r="3.5"/><circle cx="781.3" cy="10" r="3.5"/><circle cx="781.3" cy="27.5" r="3.5"/><circle cx="781.3" cy="45" r="3.5"/><circle cx="781.3" cy="62.5" r="3.5"/><circle cx="781.3" cy="80" r="3.5"/><circle cx="781.3" cy="97.5" r="3.5"/><circle cx="781.3" cy="115" r="3.5"/><circle cx="781.3" cy="132.5" r="3.5"/><circle cx="781.3" cy="150" r="3.5"/><circle cx="798.8" cy="10" r="3.5"/><circle cx="798.8" cy="27.5" r="3.5"/><circle cx="798.8" cy="45" r="3.5"/><circle cx="798.8" cy="62.5" r="3.5"/><circle cx="798.8" cy="80" r="3.5"/><circle cx="798.8" cy="97.5" r="3.5"/><circle cx="798.8" cy="115" r="3.5"/><circle cx="798.8" cy="132.5" r="3.5"/><circle cx="798.8" cy="150" r="3.5"/><circle cx="816.3" cy="10" r="3.5"/><circle cx="816.3" cy="27.5" r="3.5"/><circle cx="816.3" cy="45" r="3.5"/><circle cx="816.3" cy="62.5" r="3.5"/><circle cx="816.3" cy="80" r="3.5"/><circle cx="816.3" cy="97.5" r="3.5"/><circle cx="816.3" cy="115" r="3.5"/><circle cx="816.3" cy="132.5" r="3.5"/><circle cx="816.3" cy="150" r="3.5"/><circle cx="833.8" cy="10" r="3.5"/><circle cx="833.8" cy="27.5" r="3.5"/><circle cx="833.8" cy="45" r="3.5"/><circle cx="833.8" cy="62.5" r="3.5"/><circle cx="833.8" cy="80" r="3.5"/><circle cx="833.8" cy="97.5" r="3.5"/><circle cx="833.8" cy="115" r="3.5"/><circle cx="833.8" cy="132.5" r="3.5"/><circle cx="833.8" cy="150" r="3.5"/><circle cx="851.3" cy="10" r="3.5"/><circle cx="851.3" cy="27.5" r="3.5"/><circle cx="851.3" cy="45" r="3.5"/><circle cx="851.3" cy="62.5" r="3.5"/><circle cx="851.3" cy="80" r="3.5"/><circle cx="851.3" cy="97.5" r="3.5"/><circle cx="851.3" cy="115" r="3.5"/><circle cx="851.3" cy="132.5" r="3.5"/><circle cx="851.3" cy="150" r="3.5"/><circle cx="868.8" cy="10" r="3.5"/><circle cx="868.8" cy="27.5" r="3.5"/><circle cx="868.8" cy="45" r="3.5"/><circle cx="868.8" cy="62.5" r="3.5"/><circle cx="868.8" cy="80" r="3.5"/><circle cx="868.8" cy="97.5" r="3.5"/><circle cx="868.8" cy="115" r="3.5"/><circle cx="868.8" cy="132.5" r="3.5"/><circle cx="868.8" cy="150" r="3.5"/><circle cx="886.3" cy="10" r="3.5"/><circle cx="886.3" cy="27.5" r="3.5"/><circle cx="886.3" cy="45" r="3.5"/><circle cx="886.3" cy="62.5" r="3.5"/><circle cx="886.3" cy="80" r="3.5"/><circle cx="886.3" cy="97.5" r="3.5"/><circle cx="886.3" cy="115" r="3.5"/><circle cx="886.3" cy="132.5" r="3.5"/><circle cx="886.3" cy="150" r="3.5"/><circle cx="903.8" cy="10" r="3.5"/><circle cx="903.8" cy="27.5" r="3.5"/><circle cx="903.8" cy="45" r="3.5"/><circle cx="903.8" cy="62.5" r="3.5"/><circle cx="903.8" cy="80" r="3.5"/><circle cx="903.8" cy="97.5" r="3.5"/><circle cx="903.8" cy="115" r="3.5"/><circle cx="903.8" cy="132.5" r="3.5"/><circle cx="903.8" cy="150" r="3.5"/><circle cx="921.3" cy="10" r="3.5"/><circle cx="921.3" cy="27.5" r="3.5"/><circle cx="921.3" cy="45" r="3.5"/><circle cx="921.3" cy="62.5" r="3.5"/><circle cx="921.3" cy="80" r="3.5"/><circle cx="921.3" cy="97.5" r="3.5"/><circle cx="921.3" cy="115" r="3.5"/><circle cx="921.3" cy="132.5" r="3.5"/><circle cx="921.3" cy="150" r="3.5"/><circle cx="938.8" cy="10" r="3.5"/><circle cx="938.8" cy="27.5" r="3.5"/><circle cx="938.8" cy="45" r="3.5"/><circle cx="938.8" cy="62.5" r="3.5"/><circle cx="938.8" cy="80" r="3.5"/><circle cx="938.8" cy="97.5" r="3.5"/><circle cx="938.8" cy="115" r="3.5"/><circle cx="938.8" cy="132.5" r="3.5"/><circle cx="938.8" cy="150" r="3.5"/><circle cx="956.3" cy="10" r="3.5"/><circle cx="956.3" cy="27.5" r="3.5"/><circle cx="956.3" cy="45" r="3.5"/><circle cx="956.3" cy="62.5" r="3.5"/><circle cx="956.3" cy="80" r="3.5"/><circle cx="956.3" cy="97.5" r="3.5"/><circle cx="956.3" cy="115" r="3.5"/><circle cx="956.3" cy="132.5" r="3.5"/><circle cx="956.3" cy="150" r="3.5"/><circle cx="973.8" cy="10" r="3.5"/><circle cx="973.8" cy="27.5" r="3.5"/><circle cx="973.8" cy="45" r="3.5"/><circle cx="973.8" cy="62.5" r="3.5"/><circle cx="973.8" cy="80" r="3.5"/><circle cx="973.8" cy="97.5" r="3.5"/><circle cx="973.8" cy="115" r="3.5"/><circle cx="973.8" cy="132.5" r="3.5"/><circle cx="973.8" cy="150" r="3.5"/><circle cx="991.3" cy="10" r="3.5"/><circle cx="991.3" cy="27.5" r="3.5"/><circle cx="991.3" cy="45" r="3.5"/><circle cx="991.3" cy="62.5" r="3.5"/><circle cx="991.3" cy="80" r="3.5"/><circle cx="991.3" cy="97.5" r="3.5"/><circle cx="991.3" cy="115" r="3.5"/><circle cx="991.3" cy="132.5" r="3.5"/><circle cx="991.3" cy="150" r="3.5"/><circle cx="1008.8" cy="10" r="3.5"/><circle cx="1008.8" cy="27.5" r="3.5"/><circle cx="1008.8" cy="45" r="3.5"/><circle cx="1008.8" cy="62.5" r="3.5"/><circle cx="1008.8" cy="80" r="3.5"/><circle cx="1008.8" cy="97.5" r="3.5"/><circle cx="1008.8" cy="115" r="3.5"/><circle cx="1008.8" cy="132.5" r="3.5"/><circle cx="1008.8" cy="150" r="3.5"/><circle cx="1026.3" cy="10" r="3.5"/><circle cx="1026.3" cy="27.5" r="3.5"/><circle cx="1026.3" cy="45" r="3.5"/><circle cx="1026.3" cy="62.5" r="3.5"/><circle cx="1026.3" cy="80" r="3.5"/><circle cx="1026.3" cy="97.5" r="3.5"/><circle cx="1026.3" cy="115" r="3.5"/><circle cx="1026.3" cy="132.5" r="3.5"/><circle cx="1026.3" cy="150" r="3.5"/><circle cx="1043.8" cy="10" r="3.5"/><circle cx="1043.8" cy="27.5" r="3.5"/><circle cx="1043.8" cy="45" r="3.5"/><circle cx="1043.8" cy="62.5" r="3.5"/><circle cx="1043.8" cy="80" r="3.5"/><circle cx="1043.8" cy="97.5" r="3.5"/><circle cx="1043.8" cy="115" r="3.5"/><circle cx="1043.8" cy="132.5" r="3.5"/><circle cx="1043.8" cy="150" r="3.5"/><circle cx="1061.3" cy="10" r="3.5"/><circle cx="1061.3" cy="27.5" r="3.5"/><circle cx="1061.3" cy="45" r="3.5"/><circle cx="1061.3" cy="62.5" r="3.5"/><circle cx="1061.3" cy="80" r="3.5"/><circle cx="1061.3" cy="97.5" r="3.5"/><circle cx="1061.3" cy="115" r="3.5"/><circle cx="1061.3" cy="132.5" r="3.5"/><circle cx="1061.3" cy="150" r="3.5"/><circle cx="1078.8" cy="10" r="3.5"/><circle cx="1078.8" cy="27.5" r="3.5"/><circle cx="1078.8" cy="45" r="3.5"/><circle cx="1078.8" cy="62.5" r="3.5"/><circle cx="1078.8" cy="80" r="3.5"/><circle cx="1078.8" cy="97.5" r="3.5"/><circle cx="1078.8" cy="115" r="3.5"/><circle cx="1078.8" cy="132.5" r="3.5"/><circle cx="1078.8" cy="150" r="3.5"/><circle cx="1096.3" cy="10" r="3.5"/><circle cx="1096.3" cy="27.5" r="3.5"/><circle cx="1096.3" cy="45" r="3.5"/><circle cx="1096.3" cy="62.5" r="3.5"/><circle cx="1096.3" cy="80" r="3.5"/><circle cx="1096.3" cy="97.5" r="3.5"/><circle cx="1096.3" cy="115" r="3.5"/><circle cx="1096.3" cy="132.5" r="3.5"/><circle cx="1096.3" cy="150" r="3.5"/><circle cx="1113.8" cy="10" r="3.5"/><circle cx="1113.8" cy="27.5" r="3.5"/><circle cx="1113.8" cy="45" r="3.5"/><circle cx="1113.8" cy="62.5" r="3.5"/><circle cx="1113.8" cy="80" r="3.5"/><circle cx="1113.8" cy="97.5" r="3.5"/><circle cx="1113.8" cy="115" r="3.5"/><circle cx="1113.8" cy="132.5" r="3.5"/><circle cx="1113.8" cy="150" r="3.5"/><circle cx="1131.3" cy="10" r="3.5"/><circle cx="1131.3" cy="27.5" r="3.5"/><circle cx="1131.3" cy="45" r="3.5"/><circle cx="1131.3" cy="62.5" r="3.5"/><circle cx="1131.3" cy="80" r="3.5"/><circle cx="1131.3" cy="97.5" r="3.5"/><circle cx="1131.3" cy="115" r="3.5"/><circle cx="1131.3" cy="132.5" r="3.5"/><circle cx="1131.3" cy="150" r="3.5"/><circle cx="1148.8" cy="10" r="3.5"/><circle cx="1148.8" cy="27.5" r="3.5"/><circle cx="1148.8" cy="45" r="3.5"/><circle cx="1148.8" cy="62.5" r="3.5"/><circle cx="1148.8" cy="80" r="3.5"/><circle cx="1148.8" cy="97.5" r="3.5"/><circle cx="1148.8" cy="115" r="3.5"/><circle cx="1148.8" cy="132.5" r="3.5"/><circle cx="1148.8" cy="150" r="3.5"/><circle cx="1166.3" cy="10" r="3.5"/><circle cx="1166.3" cy="27.5" r="3.5"/><circle cx="1166.3" cy="45" r="3.5"/><circle cx="1166.3" cy="62.5" r="3.5"/><circle cx="1166.3" cy="80" r="3.5"/><circle cx="1166.3" cy="97.5" r="3.5"/><circle cx="1166.3" cy="115" r="3.5"/><circle cx="1166.3" cy="132.5" r="3.5"/><circle cx="1166.3" cy="150" r="3.5"/><circle cx="1183.8" cy="10" r="3.5"/><circle cx="1183.8" cy="27.5" r="3.5"/><circle cx="1183.8" cy="45" r="3.5"/><circle cx="1183.8" cy="62.5" r="3.5"/><circle cx="1183.8" cy="80" r="3.5"/><circle cx="1183.8" cy="97.5" r="3.5"/><circle cx="1183.8" cy="115" r="3.5"/><circle cx="1183.8" cy="132.5" r="3.5"/><circle cx="1183.8" cy="150" r="3.5"/><circle cx="1201.3" cy="10" r="3.5"/><circle cx="1201.3" cy="27.5" r="3.5"/><circle cx="1201.3" cy="45" r="3.5"/><circle cx="1201.3" cy="62.5" r="3.5"/><circle cx="1201.3" cy="80" r="3.5"/><circle cx="1201.3" cy="97.5" r="3.5"/><circle cx="1201.3" cy="115" r="3.5"/><circle cx="1201.3" cy="132.5" r="3.5"/><circle cx="1201.3" cy="150" r="3.5"/><circle cx="1218.8" cy="10" r="3.5"/><circle cx="1218.8" cy="27.5" r="3.5"/><circle cx="1218.8" cy="45" r="3.5"/><circle cx="1218.8" cy="62.5" r="3.5"/><circle cx="1218.8" cy="80" r="3.5"/><circle cx="1218.8" cy="97.5" r="3.5"/><circle cx="1218.8" cy="115" r="3.5"/><circle cx="1218.8" cy="132.5" r="3.5"/><circle cx="1218.8" cy="150" r="3.5"/><circle cx="1236.3" cy="10" r="3.5"/><circle cx="1236.3" cy="27.5" r="3.5"/><circle cx="1236.3" cy="45" r="3.5"/><circle cx="1236.3" cy="62.5" r="3.5"/><circle cx="1236.3" cy="80" r="3.5"/><circle cx="1236.3" cy="97.5" r="3.5"/><circle cx="1236.3" cy="115" r="3.5"/><circle cx="1236.3" cy="132.5" r="3.5"/><circle cx="1236.3" cy="150" r="3.5"/><circle cx="1253.8" cy="10" r="3.5"/><circle cx="1253.8" cy="27.5" r="3.5"/><circle cx="1253.8" cy="45" r="3.5"/><circle cx="1253.8" cy="62.5" r="3.5"/><circle cx="1253.8" cy="80" r="3.5"/><circle cx="1253.8" cy="97.5" r="3.5"/><circle cx="1253.8" cy="115" r="3.5"/><circle cx="1253.8" cy="132.5" r="3.5"/><circle cx="1253.8" cy="150" r="3.5"/><circle cx="1271.3" cy="10" r="3.5"/><circle cx="1271.3" cy="27.5" r="3.5"/><circle cx="1271.3" cy="45" r="3.5"/><circle cx="1271.3" cy="62.5" r="3.5"/><circle cx="1271.3" cy="80" r="3.5"/><circle cx="1271.3" cy="97.5" r="3.5"/><circle cx="1271.3" cy="115" r="3.5"/><circle cx="1271.3" cy="132.5" r="3.5"/><circle cx="1271.3" cy="150" r="3.5"/><circle cx="1288.8" cy="10" r="3.5"/><circle cx="1288.8" cy="27.5" r="3.5"/><circle cx="1288.8" cy="45" r="3.5"/><circle cx="1288.8" cy="62.5" r="3.5"/><circle cx="1288.8" cy="80" r="3.5"/><circle cx="1288.8" cy="97.5" r="3.5"/><circle cx="1288.8" cy="115" r="3.5"/><circle cx="1288.8" cy="132.5" r="3.5"/><circle cx="1288.8" cy="150" r="3.5"/><circle cx="1306.3" cy="10" r="3.5"/><circle cx="1306.3" cy="27.5" r="3.5"/><circle cx="1306.3" cy="45" r="3.5"/><circle cx="1306.3" cy="62.5" r="3.5"/><circle cx="1306.3" cy="80" r="3.5"/><circle cx="1306.3" cy="97.5" r="3.5"/><circle cx="1306.3" cy="115" r="3.5"/><circle cx="1306.3" cy="132.5" r="3.5"/><circle cx="1306.3" cy="150" r="3.5"/><circle cx="1323.8" cy="10" r="3.5"/><circle cx="1323.8" cy="27.5" r="3.5"/><circle cx="1323.8" cy="45" r="3.5"/><circle cx="1323.8" cy="62.5" r="3.5"/><circle cx="1323.8" cy="80" r="3.5"/><circle cx="1323.8" cy="97.5" r="3.5"/><circle cx="1323.8" cy="115" r="3.5"/><circle cx="1323.8" cy="132.5" r="3.5"/><circle cx="1323.8" cy="150" r="3.5"/><circle cx="1341.3" cy="10" r="3.5"/><circle cx="1341.3" cy="27.5" r="3.5"/><circle cx="1341.3" cy="45" r="3.5"/><circle cx="1341.3" cy="62.5" r="3.5"/><circle cx="1341.3" cy="80" r="3.5"/><circle cx="1341.3" cy="97.5" r="3.5"/><circle cx="1341.3" cy="115" r="3.5"/><circle cx="1341.3" cy="132.5" r="3.5"/><circle cx="1341.3" cy="150" r="3.5"/><circle cx="1358.8" cy="10" r="3.5"/><circle cx="1358.8" cy="27.5" r="3.5"/><circle cx="1358.8" cy="45" r="3.5"/><circle cx="1358.8" cy="62.5" r="3.5"/><circle cx="1358.8" cy="80" r="3.5"/><circle cx="1358.8" cy="97.5" r="3.5"/><circle cx="1358.8" cy="115" r="3.5"/><circle cx="1358.8" cy="132.5" r="3.5"/><circle cx="1358.8" cy="150" r="3.5"/><circle cx="1376.3" cy="10" r="3.5"/><circle cx="1376.3" cy="27.5" r="3.5"/><circle cx="1376.3" cy="45" r="3.5"/><circle cx="1376.3" cy="62.5" r="3.5"/><circle cx="1376.3" cy="80" r="3.5"/><circle cx="1376.3" cy="97.5" r="3.5"/><circle cx="1376.3" cy="115" r="3.5"/><circle cx="1376.3" cy="132.5" r="3.5"/><circle cx="1376.3" cy="150" r="3.5"/><circle cx="1393.8" cy="10" r="3.5"/><circle cx="1393.8" cy="27.5" r="3.5"/><circle cx="1393.8" cy="45" r="3.5"/><circle cx="1393.8" cy="62.5" r="3.5"/><circle cx="1393.8" cy="80" r="3.5"/><circle cx="1393.8" cy="97.5" r="3.5"/><circle cx="1393.8" cy="115" r="3.5"/><circle cx="1393.8" cy="132.5" r="3.5"/><circle cx="1393.8" cy="150" r="3.5"/><circle cx="1411.3" cy="10" r="3.5"/><circle cx="1411.3" cy="27.5" r="3.5"/><circle cx="1411.3" cy="45" r="3.5"/><circle cx="1411.3" cy="62.5" r="3.5"/><circle cx="1411.3" cy="80" r="3.5"/><circle cx="1411.3" cy="97.5" r="3.5"/><circle cx="1411.3" cy="115" r="3.5"/><circle cx="1411.3" cy="132.5" r="3.5"/><circle cx="1411.3" cy="150" r="3.5"/><circle cx="1428.8" cy="10" r="3.5"/><circle cx="1428.8" cy="27.5" r="3.5"/><circle cx="1428.8" cy="45" r="3.5"/><circle cx="1428.8" cy="62.5" r="3.5"/><circle cx="1428.8" cy="80" r="3.5"/><circle cx="1428.8" cy="97.5" r="3.5"/><circle cx="1428.8" cy="115" r="3.5"/><circle cx="1428.8" cy="132.5" r="3.5"/><circle cx="1428.8" cy="150" r="3.5"/><path class="cls-2" d="M11.3 150h1417.5"/><path class="cls-1" d="M571.3 45h192.5v52.5H571.3z"/><path d="M571.3 101.1h192.4a3.6 3.6 0 003.6-3.6V45a3.6 3.6 0 00-3.5-3.6H571.3a3.6 3.6 0 00-3.6 3.6v52.5a3.6 3.6 0 107.1 0V45l-3.5 3.6h192.4l-3.6-3.6v52.5l3.6-3.6H571.4a3.6 3.6 0 000 7.2z"/><text class="cls-3" transform="translate(594.9 78.5)">In<tspan class="cls-4" x="18.6" y="0">t</tspan><tspan class="cls-5" x="27.2" y="0">e</tspan><tspan x="39.5" y="0" letter-spacing="0em">r</tspan><tspan class="cls-7" x="48.4" y="0">v</tspan><tspan x="59.2" y="0">enien</tspan><tspan class="cls-4" x="114.6" y="0">t</tspan><tspan x="123.2" y="0">es</tspan></text><path class="cls-1" d="M361.3 45h192.5v52.5H361.3z"/><path d="M361.3 101.1h192.4a3.6 3.6 0 003.6-3.6V45a3.6 3.6 0 00-3.5-3.6H361.3a3.6 3.6 0 00-3.6 3.6v52.5a3.6 3.6 0 007.2 0V45l-3.6 3.6h192.4l-3.6-3.6v52.5l3.6-3.6H361.4a3.6 3.6 0 000 7.2z"/><text class="cls-3" transform="translate(428.3 78.5)">Sobre</text><path class="cls-1" d="M781.3 45h192.5v52.5H781.3z"/><path d="M777.6 45v52.5a3.6 3.6 0 003.6 3.6h192.5a3.6 3.6 0 003.6-3.6V45a3.6 3.6 0 00-3.5-3.6H781.3a3.6 3.6 0 000 7.2h192.4l-3.6-3.6v52.5l3.6-3.6H781.4l3.6 3.6V45a3.6 3.6 0 00-7.2 0z"/><text transform="translate(846.9 78.5)" letter-spacing="0em" font-size="22" font-family="Ubuntu">L<tspan class="cls-5" x="11.2" y="0">ocais</tspan></text><path class="cls-1" d="M991.3 45h192.5v52.5H991.3z"/><path d="M991.3 101.1h192.4a3.6 3.6 0 003.6-3.6V45a3.6 3.6 0 00-3.6-3.6H991.4a3.6 3.6 0 00-3.6 3.6v52.5a3.6 3.6 0 007.1 0V45l-3.5 3.6h192.4l-3.6-3.6v52.5l3.7-3.6H991.3a3.6 3.6 0 000 7.2z"/><text transform="translate(1027.4 78.5)" letter-spacing="0em" font-size="22" font-family="Ubuntu">E<tspan x="12.2" y="0" letter-spacing="0">dição 2019</tspan></text><path class="cls-1" d="M1201.3 45h192.5v52.5h-192.5z"/><path d="M1201.3 101.1h192.4a3.6 3.6 0 003.6-3.6V45a3.6 3.6 0 00-3.6-3.6h-192.4a3.6 3.6 0 00-3.6 3.6v52.5a3.6 3.6 0 007.2 0V45l-3.6 3.6h192.5l-3.6-3.6v52.5l3.6-3.6h-192.5a3.6 3.6 0 100 7.2z"/><text class="cls-3" transform="translate(1252 78.5)"><tspan letter-spacing="0em">C</tspan><tspan x="13.3" y="0">ontac</tspan><tspan class="cls-7" x="69.5" y="0">t</tspan><tspan x="78" y="0">os</tspan></text><path class="cls-1" d="M60.3 24h217v94.5h-217z"/><circle cx="63.8" cy="27.5" r="3.5"/><circle cx="63.8" cy="45" r="3.5"/><circle cx="63.8" cy="62.5" r="3.5"/><circle cx="63.8" cy="80" r="3.5"/><circle cx="63.8" cy="97.5" r="3.5"/><circle cx="63.8" cy="115" r="3.5"/><circle cx="81.3" cy="27.5" r="3.5"/><circle cx="81.3" cy="45" r="3.5"/><circle cx="81.3" cy="62.5" r="3.5"/><circle cx="81.3" cy="80" r="3.5"/><circle cx="81.3" cy="97.5" r="3.5"/><circle cx="81.3" cy="115" r="3.5"/><circle cx="98.8" cy="27.5" r="3.5"/><circle cx="98.8" cy="45" r="3.5"/><circle cx="98.8" cy="62.5" r="3.5"/><circle cx="98.8" cy="80" r="3.5"/><circle cx="98.8" cy="97.5" r="3.5"/><circle cx="98.8" cy="115" r="3.5"/><circle cx="116.3" cy="27.5" r="3.5"/><circle cx="116.3" cy="45" r="3.5"/><circle cx="116.3" cy="62.5" r="3.5"/><circle cx="116.3" cy="80" r="3.5"/><circle cx="116.3" cy="97.5" r="3.5"/><circle cx="116.3" cy="115" r="3.5"/><circle cx="133.8" cy="27.5" r="3.5"/><circle cx="133.8" cy="45" r="3.5"/><circle cx="133.8" cy="62.5" r="3.5"/><circle cx="133.8" cy="80" r="3.5"/><circle cx="133.8" cy="97.5" r="3.5"/><circle cx="133.8" cy="115" r="3.5"/><circle cx="151.3" cy="27.5" r="3.5"/><circle cx="151.3" cy="45" r="3.5"/><circle cx="151.3" cy="62.5" r="3.5"/><circle cx="151.3" cy="80" r="3.5"/><circle cx="151.3" cy="97.5" r="3.5"/><circle cx="151.3" cy="115" r="3.5"/><circle cx="168.8" cy="27.5" r="3.5"/><circle cx="168.8" cy="45" r="3.5"/><circle cx="168.8" cy="62.5" r="3.5"/><circle cx="168.8" cy="80" r="3.5"/><circle cx="168.8" cy="97.5" r="3.5"/><circle cx="168.8" cy="115" r="3.5"/><path class="cls-2" d="M98.8 27.5h-35M63.8 62.5h35M63.8 27.5v35M151.3 27.5h-35M116.3 62.5h35M116.3 27.5v35M63.8 80h17.5M98.8 97.5L81.3 80M81.3 115l17.5-17.5M63.8 115h17.5M63.8 80v35M116.3 115V80M133.8 97.5L116.3 80M151.3 80l-17.5 17.5M151.3 115V80M168.8 27.5V115"/><text class="cls-12" transform="translate(182.8 44)">Ciclo de</text><text class="cls-12" transform="translate(182.8 66.4)"><tspan class="cls-13">C</tspan><tspan x="11" y="0">o</tspan><tspan x="21.7" y="0" letter-spacing="0em">n</tspan><tspan x="31.7" y="0" letter-spacing="0em">v</tspan><tspan x="40.8" y="0" letter-spacing="0">e</tspan><tspan class="cls-13" x="50.9" y="0">r</tspan><tspan x="57.8" y="0" letter-spacing="0">s</tspan><tspan x="65.8" y="0">as</tspan></text><text class="cls-12" transform="translate(182.8 87.5)">D<tspan x="12.9" y="0" letter-spacing="0em">e</tspan><tspan x="23" y="0">sign e</tspan></text><text class="cls-12" transform="translate(182.8 109.9)">Multimédia</text><circle cx="291.3" cy="27.5" r="3.5"/><circle cx="291.3" cy="45" r="3.5"/><circle cx="291.3" cy="62.5" r="3.5"/><circle cx="291.3" cy="80" r="3.5"/><circle cx="291.3" cy="97.5" r="3.5"/><circle cx="291.3" cy="115" r="3.5"/></svg>