<svg id="Layer_1" data-name="Layer 1" xmlns="http://www.w3.org/2000/svg" viewBox="0 0 375 172"><title></title><rect width="375" height="172" fill="#f2f2f2"/><circle cx="22.5" cy="16" r="6"/><circle cx="52.5" cy="16" r="6"/><circle cx="82.5" cy="16" r="6"/><circle cx="112.5" cy="16" r="6"/><circle cx="142.5" cy="16" r="6"/><circle cx="172.5" cy="16" r="6"/><circle cx="202.5" cy="16" r="6"/><circle cx="232.5" cy="16" r="6"/><circle cx="262.5" cy="16" r="6"/><circle cx="292.5" cy="16" r="6"/><circle cx="322.5" cy="16" r="6"/><circle cx="352.5" cy="16" r="6"/><circle cx="22.5" cy="46" r="6"/><circle cx="52.5" cy="46" r="6"/><circle cx="82.5" cy="46" r="6"/><circle cx="112.5" cy="46" r="6"/><circle cx="142.5" cy="46" r="6"/><circle cx="232.5" cy="46" r="6"/><circle cx="262.5" cy="46" r="6"/><circle cx="292.5" cy="46" r="6"/><circle cx="322.5" cy="46" r="6"/><circle cx="352.5" cy="46" r="6"/><circle cx="22.5" cy="76" r="6"/><circle cx="52.5" cy="76" r="6"/><circle cx="82.5" cy="76" r="6"/><circle cx="112.5" cy="76" r="6"/><circle cx="142.5" cy="76" r="6"/><circle cx="232.5" cy="76" r="6"/><circle cx="262.5" cy="76" r="6"/><circle cx="292.5" cy="76" r="6"/><circle cx="322.5" cy="76" r="6"/><circle cx="352.5" cy="76" r="6"/><circle cx="22.5" cy="106" r="6"/><circle cx="52.5" cy="106" r="6"/><circle cx="82.5" cy="106" r="6"/><circle cx="112.5" cy="106" r="6"/><circle cx="142.5" cy="106" r="6"/><circle cx="232.5" cy="106" r="6"/><circle cx="262.5" cy="106" r="6"/><circle cx="292.5" cy="106" r="6"/><circle cx="322.5" cy="106" r="6"/><circle cx="352.5" cy="106" r="6"/><circle cx="22.5" cy="136" r="6"/><circle cx="52.5" cy="136" r="6"/><circle cx="82.5" cy="136" r="6"/><circle cx="112.5" cy="136" r="6"/><circle cx="142.5" cy="136" r="6"/><circle cx="172.5" cy="136" r="6"/><circle cx="202.5" cy="136" r="6"/><circle cx="232.5" cy="136" r="6"/><circle cx="262.5" cy="136" r="6"/><circle cx="292.5" cy="136" r="6"/><circle cx="322.5" cy="136" r="6"/><circle cx="352.5" cy="136" r="6"/><circle cx="22.5" cy="166" r="6"/><circle cx="352.5" cy="166" r="6"/>
    <line x1="142.5" y1="46" x2="232.5" y2="46" fill="none" stroke="#000" stroke-miterlimit="10" stroke-width="12"/>
    <line x1="142.5" y1="76" x2="232.5" y2="76" fill="none" stroke="#000" stroke-miterlimit="10" stroke-width="12"/>
    <line x1="142.5" y1="106" x2="232.5" y2="106" fill="none" stroke="#000" stroke-miterlimit="10" stroke-width="12"/>
    <line x1="22.5" y1="166" x2="352.5" y2="166" fill="none" stroke="#000" stroke-miterlimit="10" stroke-width="12"/></svg>