<svg id="Layer_1" data-name="Layer 1" xmlns="http://www.w3.org/2000/svg" viewBox="0 0 375 640"><title>ccdm_header_small_2</title><circle cx="22.5" cy="84" r="6"/><circle cx="352.5" cy="84" r="6"/><circle cx="22.5" cy="174" r="6"/><circle cx="352.5" cy="174" r="6"/><circle cx="22.5" cy="264" r="6"/><circle cx="352.5" cy="264" r="6"/><circle cx="22.5" cy="354" r="6"/><circle cx="352.5" cy="354" r="6"/><circle cx="22.5" cy="444" r="6"/><circle cx="352.5" cy="444" r="6"/><circle cx="22.5" cy="534" r="6"/><circle cx="352.5" cy="534" r="6"/><circle cx="22.5" cy="564" r="6"/><circle cx="52.5" cy="564" r="6"/><circle cx="82.5" cy="564" r="6"/><circle cx="112.5" cy="564" r="6"/><circle cx="142.5" cy="564" r="6"/><circle cx="172.5" cy="564" r="6"/><circle cx="202.5" cy="564" r="6"/><circle cx="232.5" cy="564" r="6"/><circle cx="262.5" cy="564" r="6"/><circle cx="292.5" cy="564" r="6"/><circle cx="322.5" cy="564" r="6"/><circle cx="352.5" cy="564" r="6"/><circle cx="22.5" cy="594" r="6"/><circle cx="52.5" cy="594" r="6"/><circle cx="82.5" cy="594" r="6"/><circle cx="112.5" cy="594" r="6"/><circle cx="142.5" cy="594" r="6"/><circle cx="172.5" cy="594" r="6"/><circle cx="202.5" cy="594" r="6"/><circle cx="232.5" cy="594" r="6"/><circle cx="262.5" cy="594" r="6"/><circle cx="292.5" cy="594" r="6"/><circle cx="322.5" cy="594" r="6"/><circle cx="352.5" cy="594" r="6"/><circle cx="22.5" cy="624" r="6"/><circle cx="52.5" cy="624" r="6"/><circle cx="82.5" cy="624" r="6"/><circle cx="112.5" cy="624" r="6"/><circle cx="142.5" cy="624" r="6"/><circle cx="172.5" cy="624" r="6"/><circle cx="202.5" cy="624" r="6"/><circle cx="232.5" cy="624" r="6"/><circle cx="262.5" cy="624" r="6"/><circle cx="292.5" cy="624" r="6"/><circle cx="322.5" cy="624" r="6"/><circle cx="352.5" cy="624" r="6"/><line x1="22.5" y1="84" x2="352.5" y2="84" fill="none" stroke="#000" stroke-miterlimit="10" stroke-width="12"/><line x1="22.5" y1="174" x2="352.5" y2="174" fill="none" stroke="#000" stroke-miterlimit="10" stroke-width="12"/><line x1="22.5" y1="264" x2="352.5" y2="264" fill="none" stroke="#000" stroke-miterlimit="10" stroke-width="12"/><line x1="22.5" y1="354" x2="352.5" y2="354" fill="none" stroke="#000" stroke-miterlimit="10" stroke-width="12"/><line x1="22.5" y1="444" x2="352.5" y2="444" fill="none" stroke="#000" stroke-miterlimit="10" stroke-width="12"/><line x1="22.5" y1="534" x2="352.5" y2="534" fill="#fff" stroke="#000" stroke-miterlimit="10" stroke-width="12"/>

    <rect width="375" height="78" fill="#fff"/>
    <text transform="translate(150.02 48.62)" font-size="30" font-family="Ubuntu-Medium, Ubuntu" font-weight="500">Início</text>

    <rect y="90" width="375" height="78" fill="#fff"/>
    <text transform="translate(146.88 138.62)" font-size="30" font-family="Ubuntu-Medium, Ubuntu" font-weight="500">Sobre</text>

    <rect y="180" width="375" height="78" fill="#fff"/>
    <text transform="translate(85.25 228.62)" font-size="30" font-family="Ubuntu-Medium, Ubuntu" font-weight="500">In<tspan x="26.31" y="0" letter-spacing="-0.01em">t</tspan><tspan x="38.58" y="0">e</tspan><tspan x="55.71" y="0" letter-spacing="0.02em">r</tspan><tspan x="68.34" y="0" letter-spacing="-0.01em">v</tspan><tspan x="83.76" y="0">enien</tspan><tspan x="161.4" y="0" letter-spacing="-0.01em">t</tspan><tspan x="173.67" y="0">es</tspan></text>

    <rect y="270" width="375" height="78" fill="#fff"/>
    <text transform="translate(144.59 318.62)" font-size="30" font-family="Ubuntu-Medium, Ubuntu" font-weight="500" letter-spacing="-0.01em">L<tspan x="15.72" y="0" letter-spacing="0em">ocais</tspan></text>

    <rect y="360" width="375" height="78" fill="#fff"/>
    <text transform="translate(104.22 408.62)" font-size="30" font-family="Ubuntu-Medium, Ubuntu" font-weight="500"><tspan letter-spacing="-0.02em">E</tspan><tspan x="17.13" y="0">dição 2019</tspan></text>

    <rect y="450" width="375" height="78" fill="#fff"/>
    <text transform="translate(117.11 498.62)" font-size="30" font-family="Ubuntu-Medium, Ubuntu" font-weight="500"><tspan letter-spacing="-0.01em">C</tspan><tspan x="18.75" y="0">ontac</tspan><tspan x="96.96" y="0" letter-spacing="-0.01em">t</tspan><tspan x="109.14" y="0" letter-spacing="0em">os</tspan></text></svg>