<svg id="Layer_1" data-name="Layer 1" xmlns="http://www.w3.org/2000/svg" viewBox="0 0 300 300"><defs><style>.cls-2{fill:none;stroke:#000;stroke-miterlimit:10;stroke-width:20px}</style></defs><path fill="#fff" d="M0 0h300v300H0z"/><circle cx="25" cy="25" r="10"/><circle cx="75" cy="25" r="10"/><circle cx="125" cy="25" r="10"/><circle cx="175" cy="25" r="10"/><circle cx="225" cy="25" r="10"/><circle cx="275" cy="25" r="10"/><circle cx="25" cy="75" r="10"/><circle cx="75" cy="75" r="10"/><circle cx="125" cy="75" r="10"/><circle cx="175" cy="75" r="10"/><circle cx="225" cy="75" r="10"/><circle cx="275" cy="75" r="10"/><circle cx="25" cy="125" r="10"/><circle cx="75" cy="125" r="10"/><circle cx="125" cy="125" r="10"/><circle cx="175" cy="125" r="10"/><circle cx="225" cy="125" r="10"/><circle cx="275" cy="125" r="10"/><circle cx="25" cy="175" r="10"/><circle cx="75" cy="175" r="10"/><circle cx="125" cy="175" r="10"/><circle cx="175" cy="175" r="10"/><circle cx="225" cy="175" r="10"/><circle cx="275" cy="175" r="10"/><circle cx="25" cy="225" r="10"/><circle cx="75" cy="225" r="10"/><circle cx="125" cy="225" r="10"/><circle cx="175" cy="225" r="10"/><circle cx="225" cy="225" r="10"/><circle cx="275" cy="225" r="10"/><circle cx="25" cy="275" r="10"/><circle cx="75" cy="275" r="10"/><circle cx="125" cy="275" r="10"/><circle cx="175" cy="275" r="10"/><circle cx="225" cy="275" r="10"/><circle cx="275" cy="275" r="10"/><path class="cls-2" d="M25 25h100M25 125V25M125 125H25M175 25h100M275 125H175M175 25v100M25 175h50M125 225l-50-50M75 275l50-50M25 175v100M75 275H25M175 275V175M225 225l-50-50M275 175l-50 50M275 275V175"/></svg>