<svg id="Layer_1" data-name="Layer 1" xmlns="http://www.w3.org/2000/svg" viewBox="0 0 768 400"><title></title><circle cx="40.25" cy="43.75" r="12.5"/><circle cx="102.75" cy="43.75" r="12.5"/><circle cx="165.25" cy="43.75" r="12.5"/><circle cx="227.75" cy="43.75" r="12.5"/><circle cx="290.25" cy="43.75" r="12.5"/><circle cx="352.75" cy="43.75" r="12.5"/><circle cx="415.25" cy="43.75" r="12.5"/><circle cx="477.75" cy="43.75" r="12.5"/><circle cx="540.25" cy="43.75" r="12.5"/><circle cx="602.75" cy="43.75" r="12.5"/><circle cx="665.25" cy="43.75" r="12.5"/><circle cx="727.75" cy="43.75" r="12.5"/><circle cx="40.25" cy="106.25" r="12.5"/><circle cx="102.75" cy="106.25" r="12.5"/><circle cx="165.25" cy="106.25" r="12.5"/><circle cx="227.75" cy="106.25" r="12.5"/><circle cx="290.25" cy="106.25" r="12.5"/><circle cx="352.75" cy="106.25" r="12.5"/><circle cx="415.25" cy="106.25" r="12.5"/><circle cx="477.75" cy="106.25" r="12.5"/><circle cx="540.25" cy="106.25" r="12.5"/><circle cx="602.75" cy="106.25" r="12.5"/><circle cx="665.25" cy="106.25" r="12.5"/><circle cx="727.75" cy="106.25" r="12.5"/><circle cx="40.25" cy="168.75" r="12.5"/><circle cx="102.75" cy="168.75" r="12.5"/><circle cx="165.25" cy="168.75" r="12.5"/><circle cx="227.75" cy="168.75" r="12.5"/><circle cx="290.25" cy="168.75" r="12.5"/><circle cx="352.75" cy="168.75" r="12.5"/><circle cx="415.25" cy="168.75" r="12.5"/><circle cx="477.75" cy="168.75" r="12.5"/><circle cx="540.25" cy="168.75" r="12.5"/><circle cx="602.75" cy="168.75" r="12.5"/><circle cx="665.25" cy="168.75" r="12.5"/><circle cx="727.75" cy="168.75" r="12.5"/><circle cx="40.25" cy="231.25" r="12.5"/><circle cx="102.75" cy="231.25" r="12.5"/><circle cx="165.25" cy="231.25" r="12.5"/><circle cx="227.75" cy="231.25" r="12.5"/><circle cx="290.25" cy="231.25" r="12.5"/><circle cx="352.75" cy="231.25" r="12.5"/><circle cx="415.25" cy="231.25" r="12.5"/><circle cx="477.75" cy="231.25" r="12.5"/><circle cx="540.25" cy="231.25" r="12.5"/><circle cx="602.75" cy="231.25" r="12.5"/><circle cx="665.25" cy="231.25" r="12.5"/><circle cx="727.75" cy="231.25" r="12.5"/><circle cx="40.25" cy="293.75" r="12.5"/><circle cx="102.75" cy="293.75" r="12.5"/><circle cx="165.25" cy="293.75" r="12.5"/><circle cx="227.75" cy="293.75" r="12.5"/><circle cx="290.25" cy="293.75" r="12.5"/><circle cx="352.75" cy="293.75" r="12.5"/><circle cx="415.25" cy="293.75" r="12.5"/><circle cx="477.75" cy="293.75" r="12.5"/><circle cx="540.25" cy="293.75" r="12.5"/><circle cx="602.75" cy="293.75" r="12.5"/><circle cx="665.25" cy="293.75" r="12.5"/><circle cx="727.75" cy="293.75" r="12.5"/><circle cx="40.25" cy="356.25" r="12.5"/><circle cx="102.75" cy="356.25" r="12.5"/><circle cx="165.25" cy="356.25" r="12.5"/><circle cx="227.75" cy="356.25" r="12.5"/><circle cx="290.25" cy="356.25" r="12.5"/><circle cx="352.75" cy="356.25" r="12.5"/><circle cx="415.25" cy="356.25" r="12.5"/><circle cx="477.75" cy="356.25" r="12.5"/><circle cx="540.25" cy="356.25" r="12.5"/><circle cx="602.75" cy="356.25" r="12.5"/><circle cx="665.25" cy="356.25" r="12.5"/><circle cx="727.75" cy="356.25" r="12.5"/><line x1="39.75" y1="356.25" x2="727.75" y2="356.25" fill="none" stroke="#000" stroke-miterlimit="10" stroke-width="25"/>
    <line x1="290.25" y1="106.25" x2="477.75" y2="106.25" fill="none" stroke="#000" stroke-miterlimit="10" stroke-width="25"/>
    <line x1="290.25" y1="168.75" x2="477.75" y2="168.75" fill="none" stroke="#000" stroke-miterlimit="10" stroke-width="25"/>
    <line x1="290.25" y1="231.25" x2="477.75" y2="231.25" fill="none" stroke="#000" stroke-miterlimit="10" stroke-width="25"/></svg>