<svg id="Layer_1" data-name="Layer 1" xmlns="http://www.w3.org/2000/svg" viewBox="0 0 961 752"><defs><style>.cls-1{fill:#191919;}</style></defs><path class="cls-1" d="M-1,703.17V596.82c0-30.55,15.84-48.66,45.82-48.66s45.83,18.11,45.83,48.66v20.93H61.23V594.84c0-13-6.22-18.39-15.56-18.39s-15.56,5.37-15.56,18.39v110.6c0,13,6.23,18.1,15.56,18.1s15.56-5.09,15.56-18.1V676.58H90.65v26.59c0,30.55-15.84,48.66-45.83,48.66S-1,733.72-1,703.17Z"/><path class="cls-1" d="M109,551h31.12v80.62h33.38V551h31.11V749H173.53V659.89H140.15V749H109Z"/><path class="cls-1" d="M289.5,710.25H253.58L248.21,749H219.35L251.6,551h42.15L326,749H294.88Zm-4-26.88L271.4,583.52l-13.86,99.85Z"/><path class="cls-1" d="M340.7,551h46.11c32.24,0,46.1,15,46.1,45.54V608.7c0,20.36-6.5,33.37-20.36,39v.57c15.56,4.81,20.65,19.51,20.65,41.86V725c0,9.62.28,16.69,3.39,24H404.91c-1.7-5.09-2.83-8.21-2.83-24.33V688.46c0-18.38-5.37-24.32-19.52-24.32H371.82V749H340.7Zm42.43,84.86c11.6,0,18.67-5.09,18.67-20.93V599.64c0-14.14-4.81-20.36-15.84-20.36H371.82v56.57Z"/><path class="cls-1" d="M516.93,710.25H481L475.63,749H446.78L479,551h42.15l32.24,198H522.3Zm-4-26.88-14.15-99.85L485,683.37Z"/><path class="cls-1" d="M579.72,579.28H547.19V551h96.18v28.29H610.83V749H579.72Z"/><path class="cls-1" d="M658.36,551h84.86v28.29H689.47v52.33h42.72v28.28H689.47v60.82h53.75V749H658.36Z"/><path class="cls-1" d="M759.91,551H806c32.25,0,46.11,15,46.11,45.54V608.7c0,20.36-6.51,33.37-20.37,39v.57c15.56,4.81,20.65,19.51,20.65,41.86V725c0,9.62.29,16.69,3.4,24H824.12c-1.7-5.09-2.83-8.21-2.83-24.33V688.46c0-18.38-5.38-24.32-19.52-24.32H791V749H759.91Zm42.43,84.86c11.59,0,18.67-5.09,18.67-20.93V599.64c0-14.14-4.81-20.36-15.85-20.36H791v56.57Z"/><path class="cls-1" d="M868.53,702V690.73H898V704.3c0,14.15,6.22,19.24,16.12,19.24s16.4-5.09,16.4-19.8c0-16.41-6.78-26.59-27.15-44.41-26-22.91-34.79-39.32-34.79-62,0-31.11,16.12-49.22,46.39-49.22s45.26,18.11,45.26,49.79v8.2H930.76V596c0-14.15-5.66-19.52-15.56-19.52s-15.84,5.37-15.84,18.95c0,14.43,7.07,24.61,27.44,42.43,26,22.91,34.51,39,34.51,63.65,0,32.24-16.41,50.35-47,50.35S868.53,733.72,868.53,702Z"/><path class="cls-1" d="M705.58,320.49c-81.87,0-155.07,19.51-202,49.68,23.12,23,35.4,49.42,35.4,77.46v64.62H961.27V448.34C961.27,378,846.21,320.49,705.58,320.49Z"/><circle class="cls-1" cx="705.58" cy="128.72" r="127.84" transform="translate(115.64 536.62) rotate(-45)"/><path id="União_1" data-name="União 1" class="cls-1" d="M-1.31,511.54V447.63c0-70.33,115.06-127.84,255.69-127.84s255.68,57.52,255.68,127.84v63.91ZM126.54,128A127.84,127.84,0,1,1,254.38,255.86,127.84,127.84,0,0,1,126.54,128Z"/></svg>