<svg id="Layer_1" data-name="Layer 1" xmlns="http://www.w3.org/2000/svg" viewBox="0 0 1080 1080"><defs><style>.cls-1{fill:#191919;}.cls-2{fill:#fff;}</style></defs><rect class="cls-1" x="-8" y="-10" width="1096" height="1096"/><path class="cls-2" d="M167.85,200.77H138.72V175.44h86.13v25.33H195.72v152H167.85Z"/><path class="cls-2" d="M238.28,175.44h27.86v72.2H296v-72.2h27.87V352.77H296V273h-29.9v79.8H238.28Z"/><path class="cls-2" d="M344.68,175.44h76v25.33H372.55v46.87H410.8V273H372.55v54.47h48.13v25.33h-76Z"/><path class="cls-2" d="M474.13,310.72V217.49c0-28.37,14.19-44.59,41.55-44.59s41.54,16.22,41.54,44.59v15.2H530.88v-17c0-12.67-5.58-17.48-14.44-17.48S502,203.05,502,215.72v97c0,12.66,5.57,17.22,14.44,17.22s14.44-4.56,14.44-17.22V278H516.94V252.71h40.28v58c0,28.37-14.18,44.59-41.54,44.59S474.13,339.09,474.13,310.72Z"/><path class="cls-2" d="M575.46,175.44h41.3c28.88,0,41.29,13.42,41.29,40.79v10.89c0,18.24-5.83,29.89-18.24,35v.51c13.93,4.3,18.49,17.48,18.49,37.49v31.16c0,8.61.26,14.95,3,21.53H633c-1.52-4.56-2.53-7.34-2.53-21.78V298.56c0-16.47-4.82-21.79-17.48-21.79h-9.63v76H575.46Zm38,76c10.39,0,16.72-4.56,16.72-18.75V219c0-12.66-4.3-18.24-14.18-18.24H603.33v50.67Z"/><path class="cls-2" d="M677.56,175.44h76v25.33H705.42v46.87h38.26V273H705.42v54.47h48.14v25.33h-76Z"/><path class="cls-2" d="M824.74,318.07H792.57l-4.82,34.7H761.91l28.88-177.33h37.75l28.88,177.33H829.56ZM821.2,294l-12.67-89.43L796.12,294Z"/><path class="cls-2" d="M881,200.77H851.85V175.44H938v25.33H908.85v152H881Z"/><path class="cls-2" d="M200.5,548.26H170.2L165.67,581H141.34l27.19-167h35.55l27.2,167H205Zm-3.34-22.66-11.93-84.22L173.54,525.6Z"/><path class="cls-2" d="M242.25,541.35V414H268.5v129.3c0,11.93,5,16.23,13.36,16.23s13.36-4.3,13.36-16.23V414h25.29v127.4c0,26.72-13.36,42-39.13,42S242.25,568.07,242.25,541.35Z"/><path class="cls-2" d="M359.63,437.8H332.2V414h81.11V437.8H385.88V581H359.63Z"/><path class="cls-2" d="M423.1,541.35v-87.8c0-26.72,14.07-42,39.84-42s39.84,15.27,39.84,42v87.8c0,26.72-14.08,42-39.84,42S423.1,568.07,423.1,541.35ZM476.54,543V451.88c0-11.93-5.25-16.46-13.6-16.46s-13.6,4.53-13.6,16.46V543c0,11.92,5.25,16.46,13.6,16.46S476.54,554.94,476.54,543Z"/><path class="cls-2" d="M520.44,414h37l17.42,121.19L592.25,414h37V581H604.41V454.5L584.85,581h-22L543.34,454.5V581h-22.9Z"/><path class="cls-2" d="M700.8,548.26H670.5L666,581H641.63l27.2-167h35.55l27.2,167H705.33Zm-3.34-22.66-11.93-84.22L673.84,525.6Z"/><path class="cls-2" d="M753.76,437.8H726.33V414h81.11V437.8H780V581H753.76Z"/><path class="cls-2" d="M820.09,414h26.24V581H820.09Z"/><path class="cls-2" d="M864,542.3V452.59c0-25.76,13.37-41,38.65-41s38.65,15.27,38.65,41v17.66H916.47V450.93c0-11-5.25-15.51-13.12-15.51s-13.12,4.53-13.12,15.51v93.28c0,11,5.25,15.27,13.12,15.27s13.12-4.3,13.12-15.27V519.87h24.81V542.3c0,25.77-13.36,41-38.65,41S864,568.07,864,542.3Z"/><path class="cls-2" d="M146.92,727.47V669.3c0-17.71,8.85-27.82,25.93-27.82s25.92,10.11,25.92,27.82v9.48H182.33V668.19c0-7.9-3.48-10.9-9-10.9s-9,3-9,10.9v60.54c0,7.91,3.48,10.75,9,10.75s9-2.84,9-10.75V707.08h-8.69V691.27h25.13v36.2c0,17.7-8.85,27.82-25.92,27.82S146.92,745.17,146.92,727.47Z"/><path class="cls-2" d="M210.15,643.06h25.76c18,0,25.77,8.38,25.77,25.45v6.8c0,11.38-3.64,18.65-11.38,21.81v.31c8.69,2.69,11.54,10.91,11.54,23.4v19.44c0,5.37.15,9.33,1.89,13.44H246c-.95-2.85-1.58-4.59-1.58-13.6V719.88c0-10.27-3-13.59-10.91-13.59h-6v47.42H210.15Zm23.71,47.42c6.48,0,10.43-2.85,10.43-11.7v-8.53c0-7.91-2.69-11.38-8.85-11.38h-7.9v31.61Z"/><path class="cls-2" d="M308.62,732.05H288.55l-3,21.66H269.42l18-110.65H311l18,110.65H311.63Zm-2.21-15-7.9-55.79L290.76,717Z"/><path class="cls-2" d="M337.23,643.06h24.5l11.54,80.3,11.54-80.3h24.5V753.71H392.87V669.93l-13,83.78H365.36l-13-83.78v83.78H337.23Z"/><path class="cls-2" d="M422.27,643.06h24.5l11.53,80.3,11.54-80.3h24.5V753.71H477.9V669.93l-13,83.78H450.4l-13-83.78v83.78H422.27Z"/><path class="cls-2" d="M541.76,732.05H521.69l-3,21.66H502.56l18-110.65h23.55l18,110.65H544.76Zm-2.21-15-7.9-55.79L523.9,717Z"/><path class="cls-2" d="M576.85,658.87H558.67V643.06h53.74v15.81H594.24v94.84H576.85Z"/><path class="cls-2" d="M620.79,643.06h17.39V753.71H620.79Z"/><path class="cls-2" d="M647.34,738.22l32.25-79.35H648.92V643.06h49.32v15.49L666,737.9h32.24v15.81h-50.9Z"/><path class="cls-2" d="M742.18,732.05H722.11l-3,21.66H703l18-110.65h23.55l18,110.65H745.18ZM740,717l-7.91-55.79L724.32,717Z"/><path class="cls-2" d="M777.27,658.87H759.09V643.06h53.74v15.81H794.66v94.84H777.27Z"/><path class="cls-2" d="M819.31,727.47V669.3c0-17.71,9.33-27.82,26.4-27.82s26.4,10.11,26.4,27.82v58.17c0,17.7-9.33,27.82-26.4,27.82S819.31,745.17,819.31,727.47Zm35.41,1.1V668.19c0-7.9-3.48-10.9-9-10.9s-9,3-9,10.9v60.38c0,7.91,3.48,10.91,9,10.91S854.72,736.48,854.72,728.57Z"/><path class="cls-2" d="M883.8,643.06h25.77c18,0,25.76,8.38,25.76,25.45v6.8c0,11.38-3.63,18.65-11.38,21.81v.31c8.69,2.69,11.54,10.91,11.54,23.4v19.44c0,5.37.16,9.33,1.9,13.44H919.68c-.95-2.85-1.58-4.59-1.58-13.6V719.88c0-10.27-3-13.59-10.9-13.59h-6v47.42H883.8Zm23.71,47.42c6.48,0,10.43-2.85,10.43-11.7v-8.53c0-7.91-2.68-11.38-8.85-11.38h-7.9v31.61Z"/><rect class="cls-2" x="140.01" y="828.85" width="799.98" height="75.25"/></svg>