<svg id="Layer_1" data-name="Layer 1" xmlns="http://www.w3.org/2000/svg" viewBox="0 0 1080 1080"><defs><style>.cls-1{fill:#191919;}.cls-2{fill:#fff;}</style></defs><rect class="cls-1" x="-8" y="-8" width="1096" height="1096"/><path class="cls-2" d="M141.28,563.7V300.14c0-80.22,40.11-126.06,117.46-126.06S376.2,219.92,376.2,300.14v43H301.72v-48c0-35.81-15.76-49.42-40.83-49.42s-40.82,13.61-40.82,49.42V569.43c0,35.81,15.75,48.71,40.82,48.71s40.83-12.9,40.83-48.71V471.31h-39.4V399.69H376.2v164c0,80.22-40.11,126.06-117.46,126.06S141.28,643.92,141.28,563.7Z"/><path class="cls-2" d="M583.9,584.47h-91L479.33,682.6H406.28l81.65-501.36H594.65L676.29,682.6H597.51Zm-10-68L538.06,263.61,503,516.43Z"/><path class="cls-2" d="M706.36,563.7V300.14c0-80.22,40.11-126.06,117.46-126.06s117.46,45.84,117.46,126.06v43H866.8v-48c0-35.81-15.76-49.42-40.83-49.42s-40.82,13.61-40.82,49.42V569.43c0,35.81,15.75,48.71,40.82,48.71s40.83-12.9,40.83-48.71V471.31H827.41V399.69H941.28v164c0,80.22-40.1,126.06-117.46,126.06S706.36,643.92,706.36,563.7Z"/><rect class="cls-2" x="138.72" y="802" width="799.98" height="84.96"/></svg>