<svg id="Layer_1" data-name="Layer 1" xmlns="http://www.w3.org/2000/svg" viewBox="0 0 925 908"><defs><style>.cls-1{fill:#191919;}</style></defs><path class="cls-1" d="M.86.42H76.67V413.9H201.4v68.91H.86Z"/><path class="cls-1" d="M237.91.42h75.81V482.81H237.91Z"/><path class="cls-1" d="M370.21.42H481.85c75.8,0,113,42,113,119.22v47.55c0,77.18-37.22,119.22-113,119.22H446v196.4H370.21ZM481.85,217.5c24.12,0,37.21-11,37.21-45.48v-57.2c0-34.46-13.09-45.48-37.21-45.48H446V217.5Z"/><path class="cls-1" d="M571,307.12,706.16,92.53c41.13-65.3,99-81,162-41.29s73.87,98.65,32.74,164L765.78,429.78c-41.13,65.31-99,81-162,41.3S529.89,372.43,571,307.12Zm128,86.35L839.35,170.72c18.36-29.16,12.51-48.32-7.9-61.17s-40.21-9.86-58.57,19.3L632.59,351.6c-18.36,29.16-12.51,48.31,7.9,61.17S680.7,422.62,699.06,393.47Z"/><path class="cls-1" d="M-.31,814.23V619.05c0-59.41,29.71-93.35,87-93.35s87,33.94,87,93.35v31.82H118.5V615.33c0-26.52-11.67-36.59-30.23-36.59S58,588.81,58,615.33V818.47C58,845,69.7,854.54,88.27,854.54S118.5,845,118.5,818.47V745.81H89.33v-53h84.33V814.23c0,59.4-29.7,93.35-87,93.35S-.31,873.63-.31,814.23Z"/><path class="cls-1" d="M211.85,531H298.3c60.46,0,86.45,28.11,86.45,85.39V639.2c0,38.19-12.2,62.59-38.18,73.19v1.07c29.17,9,38.71,36.59,38.71,78.49v65.24c0,18,.53,31.29,6.37,45.08H332.24c-3.18-9.55-5.3-15.38-5.3-45.61V788.77c0-34.48-10.08-45.61-36.6-45.61H270.19V902.27H211.85Zm79.56,159.12c21.74,0,35-9.55,35-39.25V622.23c0-26.52-9-38.19-29.7-38.19H270.19V690.12Z"/><path class="cls-1" d="M542.28,829.61H474.92l-10.08,72.66h-54.1L471.21,531h79L610.7,902.27H552.35Zm-7.43-50.39L508.33,592l-26,187.22Z"/><path class="cls-1" d="M638.27,531h82.21L759.2,800.44,797.92,531h82.21V902.27H825V621.17l-43.49,281.1h-48.8l-43.49-281.1v281.1H638.27Z"/></svg>