<svg id="Layer_1" data-name="Layer 1" xmlns="http://www.w3.org/2000/svg" viewBox="0 0 962 560"><defs><style>.cls-1{fill:#191919;}</style></defs><path class="cls-1" d="M144.09,221.61V205.33h42.34v19.54c0,20.36,9,27.69,23.21,27.69s23.61-7.33,23.61-28.5c0-23.62-9.77-38.28-39.08-63.93-37.46-33-50.08-56.59-50.08-89.16,0-44.79,23.2-70.85,66.77-70.85S276,26.18,276,71.78V83.59H233.66V68.93c0-20.36-8.14-28.09-22.39-28.09s-22.81,7.73-22.81,27.28c0,20.76,10.18,35.42,39.5,61.07,37.46,33,49.67,56.19,49.67,91.61,0,46.41-23.61,72.47-67.59,72.47S144.09,267.21,144.09,221.61Z"/><path class="cls-1" d="M292.29,4.2h43.15L355.8,227.31,377.38,4.2h48.86l21.58,223.11L468.17,4.2h38.68L478,289.2H422.17L401.4,93.36,380.64,289.2H321.19Z"/><path class="cls-1" d="M613.12,233.42h-51.7l-7.74,55.78H512.15l46.41-285h60.67l46.42,285H620.86Zm-5.7-38.68L587.07,51l-20,143.72Z"/><path class="cls-1" d="M686.81,4.2h66c44.79,0,66.77,24.83,66.77,70.43v28.1c0,45.6-22,70.43-66.77,70.43H731.6v116H686.81Zm66,128.25c14.25,0,22-6.52,22-26.87V71.78c0-20.35-7.74-26.87-22-26.87H731.6v87.54Z"/><path class="cls-1" d="M144.91,333.36h33.82l16,174.83,16.91-174.83h38.28l16.91,174.83,16-174.83H313L290.39,556.69H246.68L230.41,403.23,214.14,556.69H167.56Z"/><path class="cls-1" d="M328.35,503.73V386.32c0-35.73,18.82-56.15,53.28-56.15s53.28,20.42,53.28,56.15V503.73c0,35.73-18.83,56.15-53.28,56.15S328.35,539.46,328.35,503.73ZM399.81,506V384.09c0-15.95-7-22-18.18-22s-18.19,6.06-18.19,22V506c0,15.95,7,22,18.19,22S399.81,521.91,399.81,506Z"/><path class="cls-1" d="M458.51,333.36h52c36.37,0,52,16.91,52,51.37v13.72c0,23-7.33,37.64-23,44v.64c17.55,5.42,23.29,22,23.29,47.22v39.24c0,10.84.32,18.82,3.83,27.12H530.93c-1.91-5.75-3.19-9.26-3.19-27.44V488.41c0-20.73-6.06-27.43-22-27.43H493.6v95.71H458.51Zm47.85,95.71c13.08,0,21.06-5.74,21.06-23.6V388.24c0-15.95-5.42-23-17.87-23H493.6v63.8Z"/><path class="cls-1" d="M587.08,333.36h53.59c35.1,0,52.33,19.46,52.33,55.2V501.49c0,35.74-17.23,55.2-52.33,55.2H587.08Zm53,191.42c11.16,0,17.86-5.74,17.86-21.69V387c0-15.95-6.7-21.69-17.86-21.69H622.17V524.78Z"/><path class="cls-1" d="M710.54,503.73V491h33.18v15.31c0,16,7,21.69,18.18,21.69s18.51-5.74,18.51-22.33c0-18.5-7.66-30-30.63-50.09-29.35-25.84-39.24-44.34-39.24-69.86,0-35.1,18.18-55.52,52.32-55.52s51,20.42,51,56.15v9.25H780.72V384.09c0-15.95-6.38-22-17.54-22s-17.87,6.06-17.87,21.37c0,16.27,8,27.76,31,47.86,29.35,25.84,38.92,44,38.92,71.78,0,36.37-18.5,56.79-53,56.79S710.54,539.46,710.54,503.73Z"/><polygon class="cls-1" points="962.31 479.75 864 479.75 864 426.44 908.99 426.44 908.99 151.72 864 151.72 864 98.39 962.31 98.39 962.31 479.75"/><polygon class="cls-1" points="98 483.95 -0.31 483.95 -0.31 102.6 98 102.6 98 155.91 53.01 155.91 53.01 430.64 98 430.64 98 483.95"/></svg>