<svg id="Layer_1" data-name="Layer 1" xmlns="http://www.w3.org/2000/svg" viewBox="0 0 336.34 624.34"><defs><style>.cls-1{stroke:#000;stroke-miterlimit:10;stroke-width:0.34px;}</style></defs><title>websitebackground</title><circle class="cls-1" cx="6.17" cy="6.17" r="6"/><circle class="cls-1" cx="6.17" cy="42.17" r="6"/><circle class="cls-1" cx="6.17" cy="78.17" r="6"/><circle class="cls-1" cx="6.17" cy="114.17" r="6"/><circle class="cls-1" cx="6.17" cy="150.17" r="6"/><circle class="cls-1" cx="6.17" cy="186.17" r="6"/><circle class="cls-1" cx="6.17" cy="222.17" r="6"/><circle class="cls-1" cx="6.17" cy="258.17" r="6"/><circle class="cls-1" cx="6.17" cy="294.17" r="6"/><circle class="cls-1" cx="6.17" cy="330.17" r="6"/><circle class="cls-1" cx="6.17" cy="366.17" r="6"/><circle class="cls-1" cx="6.17" cy="402.17" r="6"/><circle class="cls-1" cx="6.17" cy="438.17" r="6"/><circle class="cls-1" cx="6.17" cy="474.17" r="6"/><circle class="cls-1" cx="6.17" cy="510.17" r="6"/><circle class="cls-1" cx="6.17" cy="546.17" r="6"/><circle class="cls-1" cx="6.17" cy="582.17" r="6"/><circle class="cls-1" cx="6.17" cy="618.17" r="6"/><circle class="cls-1" cx="42.17" cy="6.17" r="6"/><circle class="cls-1" cx="42.17" cy="42.17" r="6"/><circle class="cls-1" cx="42.17" cy="78.17" r="6"/><circle class="cls-1" cx="42.17" cy="114.17" r="6"/><circle class="cls-1" cx="42.17" cy="150.17" r="6"/><circle class="cls-1" cx="42.17" cy="186.17" r="6"/><circle class="cls-1" cx="42.17" cy="222.17" r="6"/><circle class="cls-1" cx="42.17" cy="258.17" r="6"/><circle class="cls-1" cx="42.17" cy="294.17" r="6"/><circle class="cls-1" cx="42.17" cy="330.17" r="6"/><circle class="cls-1" cx="42.17" cy="366.17" r="6"/><circle class="cls-1" cx="42.17" cy="402.17" r="6"/><circle class="cls-1" cx="42.17" cy="438.17" r="6"/><circle class="cls-1" cx="42.17" cy="474.17" r="6"/><circle class="cls-1" cx="42.17" cy="510.17" r="6"/><circle class="cls-1" cx="42.17" cy="546.17" r="6"/><circle class="cls-1" cx="42.17" cy="582.17" r="6"/><circle class="cls-1" cx="42.17" cy="618.17" r="6"/><circle class="cls-1" cx="78.17" cy="6.17" r="6"/><circle class="cls-1" cx="78.17" cy="42.17" r="6"/><circle class="cls-1" cx="78.17" cy="78.17" r="6"/><circle class="cls-1" cx="78.17" cy="114.17" r="6"/><circle class="cls-1" cx="78.17" cy="150.17" r="6"/><circle class="cls-1" cx="78.17" cy="186.17" r="6"/><circle class="cls-1" cx="78.17" cy="222.17" r="6"/><circle class="cls-1" cx="78.17" cy="258.17" r="6"/><circle class="cls-1" cx="78.17" cy="294.17" r="6"/><circle class="cls-1" cx="78.17" cy="330.17" r="6"/><circle class="cls-1" cx="78.17" cy="366.17" r="6"/><circle class="cls-1" cx="78.17" cy="402.17" r="6"/><circle class="cls-1" cx="78.17" cy="438.17" r="6"/><circle class="cls-1" cx="78.17" cy="474.17" r="6"/><circle class="cls-1" cx="78.17" cy="510.17" r="6"/><circle class="cls-1" cx="78.17" cy="546.17" r="6"/><circle class="cls-1" cx="78.17" cy="582.17" r="6"/><circle class="cls-1" cx="78.17" cy="618.17" r="6"/><circle class="cls-1" cx="114.17" cy="6.17" r="6"/><circle class="cls-1" cx="114.17" cy="42.17" r="6"/><circle class="cls-1" cx="114.17" cy="78.17" r="6"/><circle class="cls-1" cx="114.17" cy="114.17" r="6"/><circle class="cls-1" cx="114.17" cy="150.17" r="6"/><circle class="cls-1" cx="114.17" cy="186.17" r="6"/><circle class="cls-1" cx="114.17" cy="222.17" r="6"/><circle class="cls-1" cx="114.17" cy="258.17" r="6"/><circle class="cls-1" cx="114.17" cy="294.17" r="6"/><circle class="cls-1" cx="114.17" cy="330.17" r="6"/><circle class="cls-1" cx="114.17" cy="366.17" r="6"/><circle class="cls-1" cx="114.17" cy="402.17" r="6"/><circle class="cls-1" cx="114.17" cy="438.17" r="6"/><circle class="cls-1" cx="114.17" cy="474.17" r="6"/><circle class="cls-1" cx="114.17" cy="510.17" r="6"/><circle class="cls-1" cx="114.17" cy="546.17" r="6"/><circle class="cls-1" cx="114.17" cy="582.17" r="6"/><circle class="cls-1" cx="114.17" cy="618.17" r="6"/><circle class="cls-1" cx="150.17" cy="6.17" r="6"/><circle class="cls-1" cx="150.17" cy="42.17" r="6"/><circle class="cls-1" cx="150.17" cy="78.17" r="6"/><circle class="cls-1" cx="150.17" cy="114.17" r="6"/><circle class="cls-1" cx="150.17" cy="150.17" r="6"/><circle class="cls-1" cx="150.17" cy="186.17" r="6"/><circle class="cls-1" cx="150.17" cy="222.17" r="6"/><circle class="cls-1" cx="150.17" cy="258.17" r="6"/><circle class="cls-1" cx="150.17" cy="294.17" r="6"/><circle class="cls-1" cx="150.17" cy="330.17" r="6"/><circle class="cls-1" cx="150.17" cy="366.17" r="6"/><circle class="cls-1" cx="150.17" cy="402.17" r="6"/><circle class="cls-1" cx="150.17" cy="438.17" r="6"/><circle class="cls-1" cx="150.17" cy="474.17" r="6"/><circle class="cls-1" cx="150.17" cy="510.17" r="6"/><circle class="cls-1" cx="150.17" cy="546.17" r="6"/><circle class="cls-1" cx="150.17" cy="582.17" r="6"/><circle class="cls-1" cx="150.17" cy="618.17" r="6"/><circle class="cls-1" cx="186.17" cy="6.17" r="6"/><circle class="cls-1" cx="186.17" cy="42.17" r="6"/><circle class="cls-1" cx="186.17" cy="78.17" r="6"/><circle class="cls-1" cx="186.17" cy="114.17" r="6"/><circle class="cls-1" cx="186.17" cy="150.17" r="6"/><circle class="cls-1" cx="186.17" cy="186.17" r="6"/><circle class="cls-1" cx="186.17" cy="222.17" r="6"/><circle class="cls-1" cx="186.17" cy="258.17" r="6"/><circle class="cls-1" cx="186.17" cy="294.17" r="6"/><circle class="cls-1" cx="186.17" cy="330.17" r="6"/><circle class="cls-1" cx="186.17" cy="366.17" r="6"/><circle class="cls-1" cx="186.17" cy="402.17" r="6"/><circle class="cls-1" cx="186.17" cy="438.17" r="6"/><circle class="cls-1" cx="186.17" cy="474.17" r="6"/><circle class="cls-1" cx="186.17" cy="510.17" r="6"/><circle class="cls-1" cx="186.17" cy="546.17" r="6"/><circle class="cls-1" cx="186.17" cy="582.17" r="6"/><circle class="cls-1" cx="186.17" cy="618.17" r="6"/><circle class="cls-1" cx="222.17" cy="6.17" r="6"/><circle class="cls-1" cx="222.17" cy="42.17" r="6"/><circle class="cls-1" cx="222.17" cy="78.17" r="6"/><circle class="cls-1" cx="222.17" cy="114.17" r="6"/><circle class="cls-1" cx="222.17" cy="150.17" r="6"/><circle class="cls-1" cx="222.17" cy="186.17" r="6"/><circle class="cls-1" cx="222.17" cy="222.17" r="6"/><circle class="cls-1" cx="222.17" cy="258.17" r="6"/><circle class="cls-1" cx="222.17" cy="294.17" r="6"/><circle class="cls-1" cx="222.17" cy="330.17" r="6"/><circle class="cls-1" cx="222.17" cy="366.17" r="6"/><circle class="cls-1" cx="222.17" cy="402.17" r="6"/><circle class="cls-1" cx="222.17" cy="438.17" r="6"/><circle class="cls-1" cx="222.17" cy="474.17" r="6"/><circle class="cls-1" cx="222.17" cy="510.17" r="6"/><circle class="cls-1" cx="222.17" cy="546.17" r="6"/><circle class="cls-1" cx="222.17" cy="582.17" r="6"/><circle class="cls-1" cx="222.17" cy="618.17" r="6"/><circle class="cls-1" cx="258.17" cy="6.17" r="6"/><circle class="cls-1" cx="258.17" cy="42.17" r="6"/><circle class="cls-1" cx="258.17" cy="78.17" r="6"/><circle class="cls-1" cx="258.17" cy="114.17" r="6"/><circle class="cls-1" cx="258.17" cy="150.17" r="6"/><circle class="cls-1" cx="258.17" cy="186.17" r="6"/><circle class="cls-1" cx="258.17" cy="222.17" r="6"/><circle class="cls-1" cx="258.17" cy="258.17" r="6"/><circle class="cls-1" cx="258.17" cy="294.17" r="6"/><circle class="cls-1" cx="258.17" cy="330.17" r="6"/><circle class="cls-1" cx="258.17" cy="366.17" r="6"/><circle class="cls-1" cx="258.17" cy="402.17" r="6"/><circle class="cls-1" cx="258.17" cy="438.17" r="6"/><circle class="cls-1" cx="258.17" cy="474.17" r="6"/><circle class="cls-1" cx="258.17" cy="510.17" r="6"/><circle class="cls-1" cx="258.17" cy="546.17" r="6"/><circle class="cls-1" cx="258.17" cy="582.17" r="6"/><circle class="cls-1" cx="258.17" cy="618.17" r="6"/><circle class="cls-1" cx="294.17" cy="6.17" r="6"/><circle class="cls-1" cx="294.17" cy="42.17" r="6"/><circle class="cls-1" cx="294.17" cy="78.17" r="6"/><circle class="cls-1" cx="294.17" cy="114.17" r="6"/><circle class="cls-1" cx="294.17" cy="150.17" r="6"/><circle class="cls-1" cx="294.17" cy="186.17" r="6"/><circle class="cls-1" cx="294.17" cy="222.17" r="6"/><circle class="cls-1" cx="294.17" cy="258.17" r="6"/><circle class="cls-1" cx="294.17" cy="294.17" r="6"/><circle class="cls-1" cx="294.17" cy="330.17" r="6"/><circle class="cls-1" cx="294.17" cy="366.17" r="6"/><circle class="cls-1" cx="294.17" cy="402.17" r="6"/><circle class="cls-1" cx="294.17" cy="438.17" r="6"/><circle class="cls-1" cx="294.17" cy="474.17" r="6"/><circle class="cls-1" cx="294.17" cy="510.17" r="6"/><circle class="cls-1" cx="294.17" cy="546.17" r="6"/><circle class="cls-1" cx="294.17" cy="582.17" r="6"/><circle class="cls-1" cx="294.17" cy="618.17" r="6"/><circle class="cls-1" cx="330.17" cy="6.17" r="6"/><circle class="cls-1" cx="330.17" cy="42.17" r="6"/><circle class="cls-1" cx="330.17" cy="78.17" r="6"/><circle class="cls-1" cx="330.17" cy="114.17" r="6"/><circle class="cls-1" cx="330.17" cy="150.17" r="6"/><circle class="cls-1" cx="330.17" cy="186.17" r="6"/><circle class="cls-1" cx="330.17" cy="222.17" r="6"/><circle class="cls-1" cx="330.17" cy="258.17" r="6"/><circle class="cls-1" cx="330.17" cy="294.17" r="6"/><circle class="cls-1" cx="330.17" cy="330.17" r="6"/><circle class="cls-1" cx="330.17" cy="366.17" r="6"/><circle class="cls-1" cx="330.17" cy="402.17" r="6"/><circle class="cls-1" cx="330.17" cy="438.17" r="6"/><circle class="cls-1" cx="330.17" cy="474.17" r="6"/><circle class="cls-1" cx="330.17" cy="510.17" r="6"/><circle class="cls-1" cx="330.17" cy="546.17" r="6"/><circle class="cls-1" cx="330.17" cy="582.17" r="6"/><circle class="cls-1" cx="330.17" cy="618.17" r="6"/></svg>